<?xml version="1.0" encoding="UTF-8"?>
<svg version="1.1" xmlns="http://www.w3.org/2000/svg" width="204" height="204">
<path d="M0 0 C67.32 0 134.64 0 204 0 C204 67.32 204 134.64 204 204 C136.68 204 69.36 204 0 204 C0 136.68 0 69.36 0 0 Z " fill="#F5F5F5" transform="translate(0,0)"/>
<path d="M0 0 C67.32 0 134.64 0 204 0 C204 67.32 204 134.64 204 204 C136.68 204 69.36 204 0 204 C0 136.68 0 69.36 0 0 Z M40 27 C39.46890625 27.42796875 38.9378125 27.8559375 38.390625 28.296875 C25.84397658 38.60748707 17.65282888 51.31055383 11 66 C10.58878906 66.86109375 10.17757813 67.7221875 9.75390625 68.609375 C7.06887499 74.62856595 6.15382493 80.56524356 5.39453125 87.09375 C5 90 5 90 4 92 C2.77636272 110.09337942 4.84088625 125.42001593 12 142 C12.31839844 142.82371094 12.63679687 143.64742187 12.96484375 144.49609375 C22.85445939 169.33406852 45.57416084 185.76125007 69.11425781 196.20214844 C85.41303513 203.09810963 106.92837438 202.86759772 124 199 C125.41732422 198.74283203 125.41732422 198.74283203 126.86328125 198.48046875 C135.13132391 196.78305602 141.97975435 193.18185372 149.22827148 189.01757812 C150.42561504 188.32989342 151.62846265 187.65171755 152.83618164 186.98242188 C176.68835748 173.69229669 189.76003892 151.4862401 198.0546875 126.4375 C200.28393872 118.33113194 200.11939601 110.40870712 200.0625 102.0625 C200.05573242 100.17821289 200.05573242 100.17821289 200.04882812 98.25585938 C200.03709681 95.17052337 200.020681 92.08528684 200 89 C199.34 89 198.68 89 198 89 C198.0825 87.7625 198.165 86.525 198.25 85.25 C198.15337174 69.71700667 187.52057009 52.68268429 178 41 C176.98679688 39.74123047 176.98679688 39.74123047 175.953125 38.45703125 C162.38671924 22.48927264 143.93164858 12.67304864 124 7 C123.43168457 6.82186768 122.86336914 6.64373535 122.27783203 6.46020508 C119.02427391 5.80286777 115.78707385 5.7967185 112.48046875 5.76171875 C111.74484207 5.753647 111.00921539 5.74557526 110.251297 5.73725891 C108.69042289 5.72344368 107.12951889 5.71271009 105.56860352 5.70483398 C104.0008026 5.69342069 102.43303715 5.67314212 100.86547852 5.64331055 C77.92902779 5.2077005 57.8207198 12.57370302 40 27 Z " fill="#FCFCFC" transform="translate(0,0)"/>
<path d="M0 0 C1.27230469 0.41765625 1.27230469 0.41765625 2.5703125 0.84375 C17.19528723 6.16192263 30.20738682 16.48177978 38 30 C39.03942038 32.31604182 40.03791418 34.65077985 41 37 C41.45761719 38.05316406 41.91523438 39.10632813 42.38671875 40.19140625 C48.59694438 56.28577477 47.95935005 73.26258976 41 89 C40.38318359 90.546875 40.38318359 90.546875 39.75390625 92.125 C32.56246898 108.51379474 18.49947422 119.02021933 2.39453125 125.73828125 C-12.11349769 131.13079373 -29.37003747 131.26173331 -43.8203125 125.46875 C-44.86960938 124.9840625 -45.91890625 124.499375 -47 124 C-47.96679688 123.5771875 -48.93359375 123.154375 -49.9296875 122.71875 C-65.85060247 114.96125036 -76.49499336 100.9430618 -82.7734375 84.7734375 C-88.53208435 67.05734561 -87.23387437 49.52782383 -79.4609375 32.66015625 C-70.18844694 15.5873478 -55.59717519 4.38581315 -37.2421875 -1.16015625 C-24.89416651 -4.35874 -12.11035592 -4.07188779 0 0 Z M-26.9375 16.375 C-32.09302438 18.66208517 -36.12091656 20.12504347 -41.7734375 20.1328125 C-43.1346875 20.13474609 -43.1346875 20.13474609 -44.5234375 20.13671875 C-45.46445313 20.13285156 -46.40546875 20.12898438 -47.375 20.125 C-48.30828125 20.12886719 -49.2415625 20.13273437 -50.203125 20.13671875 C-51.56824219 20.13478516 -51.56824219 20.13478516 -52.9609375 20.1328125 C-53.78384277 20.13168457 -54.60674805 20.13055664 -55.45458984 20.12939453 C-58.35825602 19.98178825 -61.14225069 19.52332307 -64 19 C-64.10197178 26.77372957 -64.17170477 34.54728468 -64.21972656 42.3215332 C-64.23975996 44.96254929 -64.26699451 47.60352149 -64.30175781 50.24438477 C-64.350639 54.05496091 -64.37305267 57.86494721 -64.390625 61.67578125 C-64.41127014 62.84393875 -64.43191528 64.01209625 -64.45318604 65.21565247 C-64.45526139 72.91145072 -63.1128002 78.9703711 -60 86 C-59.505 87.14210938 -59.01 88.28421875 -58.5 89.4609375 C-53.93385375 98.33162787 -48.05268938 105.06860994 -41 112 C-39.94619141 113.051875 -39.94619141 113.051875 -38.87109375 114.125 C-33.73762059 118.92624421 -27.60073927 123.54452499 -21 126 C-16.0513562 125.10084324 -12.25259073 122.41817243 -8.25 119.5 C-7.63874268 119.05640137 -7.02748535 118.61280273 -6.39770508 118.15576172 C5.87877731 109.04454881 17.5755167 96.94695912 22 82 C22.51228149 80.33759277 22.51228149 80.33759277 23.03491211 78.64160156 C24.45964692 72.8725125 24.24780689 67.09555133 24.1953125 61.1875 C24.19106766 59.37330566 24.19106766 59.37330566 24.18673706 57.52246094 C24.17559396 53.68153752 24.15049983 49.84085225 24.125 46 C24.11496263 43.38672213 24.1058381 40.77344059 24.09765625 38.16015625 C24.07567383 31.77335704 24.04225475 25.38669554 24 19 C23.11119141 19.15936035 22.22238281 19.3187207 21.30664062 19.48291016 C7.62619661 21.62224716 -5.39631483 20.81561873 -18 15 C-21.93962782 13.68679073 -23.20373011 14.7042649 -26.9375 16.375 Z " fill="#F9F9F9" transform="translate(122,40)"/>
<path d="M0 0 C3.86225577 0.77245115 7.68905344 1.60763426 11.5234375 2.5 C18.054648 3.81860401 24.30365699 4.12808172 30.9375 4.0625 C31.81212891 4.05798828 32.68675781 4.05347656 33.58789062 4.04882812 C35.72529047 4.03714834 37.86265463 4.01921689 40 4 C40.20500657 11.39697187 40.34383169 18.79319631 40.43945312 26.19238281 C40.47936662 28.70242686 40.53371887 31.2122888 40.60351562 33.72167969 C41.01907628 49.06075671 40.88665042 61.12078205 32 74 C31.60310974 74.58242966 31.20621948 75.16485931 30.79730225 75.76493835 C28.35678464 79.3252933 25.77876488 82.69703588 23 86 C22.46117188 86.64066406 21.92234375 87.28132813 21.3671875 87.94140625 C15.85627365 93.90925517 8.80022907 98.61645416 2 103 C1.34 103 0.68 103 0 103 C0 69.01 0 35.02 0 0 Z " fill="#F4F4F4" transform="translate(103,59)"/>
<path d="M0 0 C2.28049847 -0.01181605 4.55821111 -0.06103876 6.83813477 -0.11157227 C20.64058441 -0.26458118 32.64411125 3.18773232 45.05883789 9.23803711 C46.11663452 9.74669312 46.11663452 9.74669312 47.19580078 10.265625 C53.39987801 13.33895088 58.90476276 17.01219778 64.24633789 21.42553711 C65.48577148 22.42133789 65.48577148 22.42133789 66.75024414 23.43725586 C81.56039867 35.97605649 94.38876441 55.1376697 98.24633789 74.42553711 C98.31182281 76.00765284 98.3321217 77.59223792 98.30883789 79.17553711 C98.29981445 79.97475586 98.29079102 80.77397461 98.28149414 81.59741211 C98.26989258 82.20069336 98.25829102 82.80397461 98.24633789 83.42553711 C98.90633789 83.42553711 99.56633789 83.42553711 100.24633789 83.42553711 C100.92032867 115.3692437 95.6809831 140.88907101 73.60961914 165.34741211 C62.82877621 176.48197742 51.30897532 183.3273252 37.24633789 189.42553711 C36.44067383 189.78647461 35.63500977 190.14741211 34.80493164 190.51928711 C21.11078722 195.36973216 6.6257754 196.2612651 -7.75366211 195.42553711 C-8.78813477 195.3675293 -8.78813477 195.3675293 -9.84350586 195.30834961 C-19.94371074 194.62833582 -28.70383161 191.70996409 -37.75366211 187.42553711 C-38.39368164 187.12341309 -39.03370117 186.82128906 -39.69311523 186.51000977 C-48.66298559 182.18893858 -56.35887529 177.16715664 -63.75366211 170.42553711 C-64.50905273 169.76295898 -65.26444336 169.10038086 -66.04272461 168.41772461 C-75.35238038 159.76599504 -83.29421391 148.34336374 -87.75366211 136.42553711 C-88.49036133 134.71624023 -88.49036133 134.71624023 -89.24194336 132.97241211 C-94.33737409 121.10037917 -95.90036959 110.5486209 -96.00366211 97.67553711 C-96.01316895 96.69262695 -96.02267578 95.7097168 -96.0324707 94.69702148 C-96.00965659 89.71171422 -95.69981968 85.23113898 -94.30932617 80.43920898 C-93.67594637 78.1439029 -93.2657414 75.84739036 -92.84741211 73.50366211 C-91.85489105 68.46796419 -90.25810413 63.89184216 -88.25366211 59.17553711 C-87.9061792 58.35706299 -87.55869629 57.53858887 -87.20068359 56.6953125 C-76.23941502 31.94242352 -55.13165045 14.39706468 -30.28491211 4.68310547 C-20.18789985 0.90694092 -10.7229275 0.02615071 0 0 Z M-60.75366211 26.42553711 C-61.78491211 27.20928711 -62.81616211 27.99303711 -63.87866211 28.80053711 C-75.5401498 39.44798239 -84.41132733 54.25766075 -88.75366211 69.42553711 C-89.12362305 70.65143555 -89.49358398 71.87733398 -89.87475586 73.14038086 C-94.35768954 89.09243984 -94.26095786 105.49322647 -89.75366211 121.42553711 C-89.49842773 122.46323242 -89.24319336 123.50092773 -88.98022461 124.57006836 C-86.37342272 134.2678497 -81.63281836 142.72020491 -76.75366211 151.42553711 C-76.09366211 151.42553711 -75.43366211 151.42553711 -74.75366211 151.42553711 C-74.51518555 152.14225586 -74.27670898 152.85897461 -74.03100586 153.59741211 C-67.54806328 167.95108314 -49.76061014 179.26295288 -35.75366211 185.42553711 C-14.09265176 193.49452011 9.02850372 195.72447579 31.24633789 188.42553711 C32.2017749 188.1200293 32.2017749 188.1200293 33.17651367 187.80834961 C57.05576424 179.92764965 76.88963351 161.72090766 88.24633789 139.42553711 C89.7560533 135.81043627 91.02437371 132.14622625 92.24633789 128.42553711 C92.52348633 127.66370117 92.80063477 126.90186523 93.08618164 126.11694336 C99.66105948 107.76616492 98.87051294 87.88537299 93.24633789 69.42553711 C92.96918945 68.45874023 92.69204102 67.49194336 92.40649414 66.49584961 C88.24854648 53.58130249 80.82325016 41.93605831 71.24633789 32.42553711 C70.49223633 31.6353418 69.73813477 30.84514648 68.96118164 30.03100586 C58.63209564 19.34757729 46.44218687 11.93540971 32.24633789 7.42553711 C31.34657227 7.07491211 30.44680664 6.72428711 29.51977539 6.36303711 C-1.72180107 -4.17276385 -36.62399621 5.18318166 -60.75366211 26.42553711 Z " fill="#191919" transform="translate(99.753662109375,5.574462890625)"/>
<path d="M0 0 C2.49168558 2.15208372 4.78746916 4.37566548 7.05078125 6.765625 C7.74429688 7.48878906 8.4378125 8.21195313 9.15234375 8.95703125 C21.65546368 23.22217387 25.76424823 40.16627883 25.05078125 58.765625 C25.04111328 60.19648438 25.04111328 60.19648438 25.03125 61.65625 C24.40809252 78.92002029 14.607056 94.4378002 2.27734375 105.96875 C-14.64266444 121.03829204 -35.23383957 123.79341722 -57.0078125 122.59765625 C-68.98503172 121.04809212 -81.13058145 113.7486253 -89.94921875 105.765625 C-90.60921875 105.19714844 -91.26921875 104.62867188 -91.94921875 104.04296875 C-103.89429109 93.05443541 -112.21190298 76.98504578 -113.05615234 60.70336914 C-113.67093406 38.82451729 -108.11232539 20.53604848 -92.88671875 4.203125 C-66.6782718 -20.99392215 -28.22737256 -21.3855061 0 0 Z M-94.26171875 10.078125 C-106.42147331 24.73542251 -111.60325532 41.63690435 -110.19287109 60.51708984 C-108.13244533 79.5316402 -98.04919503 95.32475776 -83.81640625 107.6953125 C-72.15336652 116.11685345 -58.34996724 120.34722133 -44.07421875 120.203125 C-42.482146 120.19067749 -42.482146 120.19067749 -40.85791016 120.17797852 C-33.22022692 120.01291245 -26.88042815 119.12136903 -19.94921875 115.765625 C-18.82773438 115.29125 -17.70625 114.816875 -16.55078125 114.328125 C0.7886335 106.50470143 12.10487341 92.98672381 18.82421875 75.34375 C19.22898438 74.16296875 19.63375 72.9821875 20.05078125 71.765625 C20.42589844 70.67765625 20.80101562 69.5896875 21.1875 68.46875 C24.38543932 54.75089263 22.7025798 40.52120349 17.05078125 27.765625 C16.66664063 26.84652344 16.2825 25.92742187 15.88671875 24.98046875 C9.23337552 10.33858755 -3.3487719 -0.79761886 -17.94921875 -7.234375 C-45.79348093 -17.19700092 -73.53319031 -12.01359486 -94.26171875 10.078125 Z " fill="#1F1F1F" transform="translate(145.94921875,49.234375)"/>
<path d="M0 0 C1.85687821 0.74275129 3.70799089 1.51050208 5.49609375 2.40625 C16.60912588 7.38488839 30.63992508 6.50510281 42.4375 4.375 C42.48835322 12.06133183 42.52329796 19.74761999 42.54736328 27.43408203 C42.55739948 30.04705425 42.57103136 32.66001531 42.58837891 35.27294922 C42.61273163 39.03616092 42.62400721 42.79922367 42.6328125 46.5625 C42.64313507 47.72426758 42.65345764 48.88603516 42.66409302 50.08300781 C42.6667235 69.24696287 33.46537619 82.94945614 20.8125 96.5625 C16.60498964 100.61640284 12.06146068 103.93261695 7.1875 107.125 C6.51380371 107.58028076 5.84010742 108.03556152 5.14599609 108.50463867 C1.83834601 110.56506824 0.28427895 111.50847714 -3.66015625 110.88671875 C-23.30114685 100.65648542 -36.15884216 84.55327447 -44.5625 64.375 C-45.57541773 61.12668407 -45.68367319 58.17589756 -45.67602539 54.78027344 C-45.67594986 53.65941345 -45.67587433 52.53855347 -45.67579651 51.38372803 C-45.67063522 50.17944153 -45.66547394 48.97515503 -45.66015625 47.734375 C-45.65803383 45.87839691 -45.65803383 45.87839691 -45.65586853 43.98492432 C-45.6512211 40.70355059 -45.64224347 37.42222627 -45.63116455 34.14086914 C-45.6209152 30.78922989 -45.61644859 27.43758852 -45.61132812 24.0859375 C-45.60030025 17.51560569 -45.58356296 10.94530689 -45.5625 4.375 C-44.22469482 4.61512817 -44.22469482 4.61512817 -42.85986328 4.86010742 C-29.90230008 6.88346747 -16.09610868 6.57515019 -4.4140625 0.203125 C-2.5625 -0.625 -2.5625 -0.625 0 0 Z M-8.5625 5.8125 C-16.31260241 9.20717296 -25.15762942 8.41997035 -33.453125 8.39453125 C-34.3311377 8.39312134 -35.20915039 8.39171143 -36.11376953 8.39025879 C-38.26334926 8.38660304 -40.41292553 8.38099918 -42.5625 8.375 C-42.66431551 15.90051659 -42.73413986 23.42585407 -42.78222656 30.9519043 C-42.80228303 33.50958901 -42.82953505 36.06722821 -42.86425781 38.62475586 C-42.91303672 42.31114975 -42.93552945 45.99693484 -42.953125 49.68359375 C-42.97377014 50.81832626 -42.99441528 51.95305878 -43.01568604 53.12217712 C-43.01764597 60.13121504 -42.01608438 65.25936203 -38.5625 71.375 C-38.07398811 72.26569183 -38.07398811 72.26569183 -37.5756073 73.17437744 C-29.34283242 87.54053967 -18.66836172 98.70037483 -4.5625 107.375 C-3.9025 107.375 -3.2425 107.375 -2.5625 107.375 C-2.5625 73.385 -2.5625 39.395 -2.5625 4.375 C-5.66602879 4.15893991 -5.66602879 4.15893991 -8.5625 5.8125 Z M-0.5625 4.375 C-0.5625 38.365 -0.5625 72.355 -0.5625 107.375 C3.89612915 105.59154834 7.11078541 103.60090152 10.8125 100.6875 C11.3897583 100.2339917 11.9670166 99.7804834 12.56176758 99.31323242 C19.40707561 93.87347628 24.63673115 88.36026032 29.5625 81.125 C29.97072998 80.52921143 30.37895996 79.93342285 30.79956055 79.31958008 C37.23929013 69.53832178 40.19600078 61.26199672 39.92578125 49.48828125 C39.91516914 47.71374825 39.91516914 47.71374825 39.90434265 45.90336609 C39.87659081 42.16407175 39.8138849 38.42633364 39.75 34.6875 C39.72489247 32.13608949 39.70208364 29.58465527 39.68164062 27.03320312 C39.62682716 20.81328062 39.54339455 14.59425153 39.4375 8.375 C38.1580249 8.38515137 36.8785498 8.39530273 35.56030273 8.40576172 C33.85140087 8.41397477 32.14249778 8.42193665 30.43359375 8.4296875 C29.1740387 8.44068481 29.1740387 8.44068481 27.88903809 8.4519043 C19.27713192 8.48110427 10.21600802 8.37345552 2.4375 4.375 C1.4475 4.375 0.4575 4.375 -0.5625 4.375 Z " fill="#0C0C0C" transform="translate(103.5625,54.625)"/>
<path d="M0 0 C3.196875 -0.0825 6.39375 -0.165 9.6875 -0.25 C10.68612061 -0.28641602 11.68474121 -0.32283203 12.71362305 -0.36035156 C16.98285395 -0.41369006 19.36670269 -0.38848656 23.08203125 1.890625 C25.89207478 4.98110057 26.17707246 6.77890319 26.25 10.875 C26.27578125 11.73867187 26.3015625 12.60234375 26.328125 13.4921875 C25.93690173 16.48225103 25.07073811 17.83879275 23 20 C22.34 20 21.68 20 21 20 C21.49371094 20.77085938 21.98742187 21.54171875 22.49609375 22.3359375 C23.13675781 23.33882812 23.77742188 24.34171875 24.4375 25.375 C25.07558594 26.37273437 25.71367188 27.37046875 26.37109375 28.3984375 C28 31 28 31 29 33 C17.20807175 33.92017937 17.20807175 33.92017937 14.24609375 31.6640625 C13.1875 30 13.1875 30 12 27 C11.67 28.98 11.34 30.96 11 33 C7.37 33 3.74 33 0 33 C0 22.11 0 11.22 0 0 Z " fill="#2C2C2C" transform="translate(68,85)"/>
<path d="M0 0 C18.10456855 6.85929009 28.85050949 19.43062865 37.3125 36.375 C41.84355979 46.58498806 42.42324077 56.966551 42 68 C41.99355469 68.95390625 41.98710937 69.9078125 41.98046875 70.890625 C41.35731127 88.15439529 31.55627475 103.6721752 19.2265625 115.203125 C3.94372756 128.81454416 -14.93415249 132.8126575 -34.86083984 132.14941406 C-39.08971149 131.85403978 -43.21837314 130.94892353 -47 129 C-47.33 128.34 -47.66 127.68 -48 127 C-46.13794922 127.23783203 -46.13794922 127.23783203 -44.23828125 127.48046875 C-30.65273382 128.97580858 -15.53998244 130.08053825 -3 124 C-1.86691406 123.51402344 -0.73382813 123.02804688 0.43359375 122.52734375 C17.566822 114.72609989 28.18923981 101.86624184 34.7734375 84.578125 C35.17820312 83.39734375 35.58296875 82.2165625 36 81 C36.37511719 79.91203125 36.75023437 78.8240625 37.13671875 77.703125 C40.33465807 63.98526763 38.65179855 49.75557849 33 37 C32.61585938 36.08089844 32.23171875 35.16179687 31.8359375 34.21484375 C25.09613571 19.38269491 13.25152652 10.15285742 -1 3 C-0.67 2.01 -0.34 1.02 0 0 Z " fill="#171717" transform="translate(129,40)"/>
<path d="M0 0 C18.1794848 -0.64281051 38.24969484 9.63916335 52 21 C52.82628906 21.66386719 53.65257812 22.32773437 54.50390625 23.01171875 C69.31406078 35.55051938 82.14242652 54.71213259 86 74 C86.06548492 75.58211573 86.08578381 77.16670081 86.0625 78.75 C86.05347656 79.54921875 86.04445313 80.3484375 86.03515625 81.171875 C86.02355469 81.77515625 86.01195312 82.3784375 86 83 C86.66 83 87.32 83 88 83 C88.39435761 101.69052824 88.04527147 117.47622831 81 135 C80.01 134.67 79.02 134.34 78 134 C78.4578042 130.42912725 79.23457513 127.19041023 80.4375 123.8125 C86.41719133 105.99067487 85.42542974 86.80750806 80 69 C79.72285156 68.03320312 79.44570312 67.06640625 79.16015625 66.0703125 C75.00276229 53.15748519 67.57726188 41.50885286 58 32 C57.319375 31.28328125 56.63875 30.5665625 55.9375 29.828125 C45.99302352 19.49519241 33.70698614 12.27579782 20 8 C19.01902344 7.66097656 18.03804687 7.32195313 17.02734375 6.97265625 C5.1836693 3.28708314 -6.68077579 3.17754131 -19 3 C-19 2.67 -19 2.34 -19 2 C-12.73 2 -6.46 2 0 2 C0 1.34 0 0.68 0 0 Z " fill="#252525" transform="translate(112,6)"/>
<path d="M0 0 C3.63 0 7.26 0 11 0 C12.65 3.3 14.3 6.6 16 10 C17.65 6.7 19.3 3.4 21 0 C24.3 0 27.6 0 31 0 C30.34099592 4.50897531 28.62541936 8.39019622 26.75 12.5 C23.57907975 19.58185863 20.7033375 26.72465853 18 34 C16.68 34 15.36 34 14 34 C2.708316 8.35778965 2.708316 8.35778965 0 0 Z " fill="#1A1A1A" transform="translate(108,85)"/>
<path d="M0 0 C1.010625 0.4125 2.02125 0.825 3.0625 1.25 C4.01125 1.62125 4.96 1.9925 5.9375 2.375 C6.63875 2.66375 7.34 2.9525 8.0625 3.25 C7.7325 4.24 7.4025 5.23 7.0625 6.25 C7.7225 6.58 8.3825 6.91 9.0625 7.25 C5.2561543 6.57829194 1.71043184 5.52253436 -1.9375 4.25 C-2.2675 4.91 -2.5975 5.57 -2.9375 6.25 C-2.9375 5.59 -2.9375 4.93 -2.9375 4.25 C-3.53175781 4.52714844 -4.12601563 4.80429687 -4.73828125 5.08984375 C-16.94080961 10.42251944 -29.9446111 9.9202418 -42.9375 8.25 C-42.89570891 15.77603331 -42.82326272 23.30133442 -42.72998047 30.8269043 C-42.7018382 33.38445418 -42.68059031 35.94208994 -42.66650391 38.49975586 C-42.64498187 42.18648027 -42.59828065 45.87217934 -42.546875 49.55859375 C-42.54503204 51.26069252 -42.54503204 51.26069252 -42.54315186 52.99717712 C-42.41603277 59.96240074 -41.35502959 65.16248506 -37.9375 71.25 C-37.60682526 71.84907669 -37.27615051 72.44815338 -36.93545532 73.06538391 C-29.86628894 85.29029923 -21.27613006 95.25825385 -9.4074707 102.99121094 C-7.8701585 104.00940023 -6.39684308 105.12289929 -4.9375 106.25 C-4.9375 107.24 -4.9375 108.23 -4.9375 109.25 C-20.92274269 103.51023602 -33.68062314 88.31464782 -40.86254883 73.39916992 C-43.85571278 67.02129217 -46.06708873 61.78739768 -46.05102539 54.65527344 C-46.05094986 53.53441345 -46.05087433 52.41355347 -46.05079651 51.25872803 C-46.04563522 50.05444153 -46.04047394 48.85015503 -46.03515625 47.609375 C-46.03303383 45.75339691 -46.03303383 45.75339691 -46.03086853 43.85992432 C-46.0262211 40.57855059 -46.01724347 37.29722627 -46.00616455 34.01586914 C-45.9959152 30.66422989 -45.99144859 27.31258852 -45.98632812 23.9609375 C-45.97530025 17.39060569 -45.95856296 10.82030689 -45.9375 4.25 C-44.59969482 4.49012817 -44.59969482 4.49012817 -43.23486328 4.73510742 C-30.33343486 6.74970186 -16.41481843 6.51130545 -4.8125 0.0703125 C-2.9375 -0.75 -2.9375 -0.75 0 0 Z " fill="#0F0F0F" transform="translate(103.9375,54.75)"/>
<path d="M0 0 C1.24716797 0.00902344 2.49433594 0.01804687 3.77929688 0.02734375 C6.83223504 0.05073791 9.88476306 0.08351826 12.9375 0.125 C12.9375 0.785 12.9375 1.445 12.9375 2.125 C11.73996094 2.16238281 10.54242188 2.19976562 9.30859375 2.23828125 C-1.11561647 2.63109941 -10.90936598 3.5924205 -21.0625 6.125 C-22.69058594 6.52332031 -22.69058594 6.52332031 -24.3515625 6.9296875 C-38.18506214 10.73305845 -49.36766659 17.73613635 -60.0625 27.125 C-60.90039062 27.7746875 -61.73828125 28.424375 -62.6015625 29.09375 C-74.30592433 38.7544931 -82.94584511 54.67823446 -87.0625 69.125 C-87.42085937 70.35089844 -87.77921875 71.57679687 -88.1484375 72.83984375 C-91.24403121 84.19805112 -91.83315503 95.39400473 -92.0625 107.125 C-92.7225 107.125 -93.3825 107.125 -94.0625 107.125 C-94.52710826 79.4700869 -91.0418905 57.05871847 -73.0625 35.125 C-72.3096875 34.20332031 -71.556875 33.28164063 -70.78125 32.33203125 C-52.82858046 11.43992814 -27.32505776 -0.37769883 0 0 Z " fill="#222222" transform="translate(99.0625,5.875)"/>
<path d="M0 0 C0.33 0 0.66 0 1 0 C1 6.93 1 13.86 1 21 C1.99 21 2.98 21 4 21 C4.17015625 21.85980469 4.3403125 22.71960938 4.515625 23.60546875 C7.21248338 36.75982585 10.77805856 48.27048764 17.390625 59.98046875 C19 63 19 63 19 65 C19.66 65 20.32 65 21 65 C21.90707537 66.36061306 22.80909162 67.72476385 23.69140625 69.1015625 C34.35530203 84.57216951 51.66493938 96.27201362 69.7421875 101.1484375 C72 102 72 102 74 105 C76.05003955 106.19232613 76.05003955 106.19232613 78 107 C72.12685571 106.49696095 67.51926388 105.28140855 62.1875 102.8125 C61.49245361 102.49716309 60.79740723 102.18182617 60.08129883 101.85693359 C49.59009686 97.03871603 40.66792376 91.71057098 32 84 C31.23945312 83.33484375 30.47890625 82.6696875 29.6953125 81.984375 C20.39976734 73.31735425 12.46007424 61.9194997 8 50 C7.50886719 48.86046875 7.01773437 47.7209375 6.51171875 46.546875 C-0.15992329 31.00236889 -0.27594704 16.70116416 0 0 Z " fill="#171717" transform="translate(4,92)"/>
<path d="M0 0 C2.536875 -0.103125 5.07375 -0.20625 7.6875 -0.3125 C8.47729248 -0.35802002 9.26708496 -0.40354004 10.08081055 -0.45043945 C14.17759491 -0.53072793 15.62077771 -0.2958331 18.984375 2.328125 C21 5 21 5 21.5625 8.0625 C20.87808796 11.63665177 19.85181131 12.80003128 17 15 C16.01 15.33 15.02 15.66 14 16 C15.45044271 20.10958767 17.51110752 23.43258745 20 27 C17.375 27.5625 17.375 27.5625 14 27 C10.7528907 23.57737128 8.11641916 19.98744137 7.8359375 15.19921875 C7.89007813 14.47347656 7.94421875 13.74773437 8 13 C10.31 12.34 12.62 11.68 15 11 C15 9.02 15 7.04 15 5 C11.7 4.34 8.4 3.68 5 3 C5 10.92 5 18.84 5 27 C3.35 27 1.7 27 0 27 C0 18.09 0 9.18 0 0 Z " fill="#DDDDDD" transform="translate(71,88)"/>
<path d="M0 0 C0.33 0 0.66 0 1 0 C1 33.99 1 67.98 1 103 C1.99 103.33 2.98 103.66 4 104 C2.75 105.5625 2.75 105.5625 1 107 C-1.1875 106.6875 -1.1875 106.6875 -3 106 C-3 105.01 -3 104.02 -3 103 C-2.34 103 -1.68 103 -1 103 C-1.00222061 101.73910553 -1.00444122 100.47821106 -1.00672913 99.17910767 C-1.02696723 87.31851842 -1.04197538 75.45793266 -1.05181217 63.59733009 C-1.05703929 57.49912422 -1.06413386 51.40093225 -1.07543945 45.30273438 C-1.08627438 39.42186725 -1.09227813 33.54101351 -1.09487724 27.66013718 C-1.09673039 25.41217208 -1.10034892 23.16420774 -1.10573006 20.91624832 C-1.11294849 17.77699425 -1.1139906 14.63779614 -1.11352539 11.49853516 C-1.11712067 10.56130112 -1.12071594 9.62406708 -1.12442017 8.65843201 C-1.1230455 7.80585312 -1.12167084 6.95327423 -1.12025452 6.07485962 C-1.12117631 5.33189447 -1.1220981 4.58892933 -1.12304783 3.82345009 C-1 2 -1 2 0 0 Z " fill="#010101" transform="translate(102,59)"/>
<path d="M0 0 C0 3.96911074 -1.3155842 4.7608145 -3.9375 7.6875 C-12.07830976 17.38199743 -18.5221872 28.79515227 -22 41 C-22.35835937 42.22589844 -22.71671875 43.45179687 -23.0859375 44.71484375 C-26.18153121 56.07305112 -26.77065503 67.26900473 -27 79 C-27.66 79 -28.32 79 -29 79 C-29.45727799 51.78140694 -26.34359702 28.3666218 -8 7 C-5.46239648 4.46650929 -2.87801069 2.13841018 0 0 Z " fill="#131313" transform="translate(34,34)"/>
<path d="M0 0 C1.32 0.33 2.64 0.66 4 1 C4.495 6.445 4.495 6.445 5 12 C4.34 12 3.68 12 3 12 C2.34 10.02 1.68 8.04 1 6 C0.67 6 0.34 6 0 6 C-0.33 8.31 -0.66 10.62 -1 13 C-1.99 13 -2.98 13 -4 13 C-4 10.36 -4 7.72 -4 5 C-5.32 5 -6.64 5 -8 5 C-7.979375 5.94875 -7.95875 6.8975 -7.9375 7.875 C-8 11 -8 11 -9 13 C-10.98 13 -12.96 13 -15 13 C-16.35439668 10.29120665 -16.06501451 7.99066732 -16 5 C-16.99 5 -17.98 5 -19 5 C-19.33 7.31 -19.66 9.62 -20 12 C-20.66 12 -21.32 12 -22 12 C-22 9.36 -22 6.72 -22 4 C-22.99 4.33 -23.98 4.66 -25 5 C-26.22969878 8.51190809 -26.22969878 8.51190809 -27 12 C-27.66 12 -28.32 12 -29 12 C-28.67 8.7 -28.34 5.4 -28 2 C-25.68756208 1.97314588 -23.3750373 1.95367159 -21.0625 1.9375 C-19.77472656 1.92589844 -18.48695312 1.91429687 -17.16015625 1.90234375 C-14 2 -14 2 -13 3 C-12.92820036 4.51928038 -12.91607993 6.04167482 -12.9375 7.5625 C-12.94652344 8.38878906 -12.95554687 9.21507812 -12.96484375 10.06640625 C-12.97644531 10.70449219 -12.98804687 11.34257812 -13 12 C-12.34 12 -11.68 12 -11 12 C-11 9.03 -11 6.06 -11 3 C-7.1273408 2.0318352 -3.96388638 1.92377142 0 2 C0 1.34 0 0.68 0 0 Z " fill="#444444" transform="translate(113,177)"/>
<path d="M0 0 C0.66 0 1.32 0 2 0 C2.99 3.3 3.98 6.6 5 10 C4.34 10 3.68 10 3 10 C1.29317519 11.64873805 1.29317519 11.64873805 -0.4375 13.75 C-1.03433594 14.44609375 -1.63117187 15.1421875 -2.24609375 15.859375 C-3.89081098 17.86673589 -5.46126108 19.91070312 -7 22 C-10.35595828 21.40072174 -12.37801226 20.15377564 -15 18 C-13.70080115 10.98432623 -9.33181853 7.2508471 -4 3 C-1.525 3.99 -1.525 3.99 1 5 C0.67 3.35 0.34 1.7 0 0 Z " fill="#E0E0E0" transform="translate(49,34)"/>
<path d="M0 0 C1.65 0 3.3 0 5 0 C5.33773437 0.74765625 5.67546875 1.4953125 6.0234375 2.265625 C6.46945313 3.25046875 6.91546875 4.2353125 7.375 5.25 C8.03628906 6.71179688 8.03628906 6.71179688 8.7109375 8.203125 C9.76447209 10.48897582 10.87438469 12.74876939 12 15 C13.98 10.05 15.96 5.1 18 0 C19.65 0 21.3 0 23 0 C21.40479801 4.99195051 19.53416414 9.83578293 17.5625 14.6875 C17.26279297 15.44611328 16.96308594 16.20472656 16.65429688 16.98632812 C16.35716797 17.71658203 16.06003906 18.44683594 15.75390625 19.19921875 C15.48908447 19.85752686 15.2242627 20.51583496 14.95141602 21.1940918 C13.89908042 23.19155815 12.66378333 24.48930226 11 26 C8.33841518 20.86694356 6.04602066 15.72297797 3.94921875 10.3359375 C3.14234844 8.35030603 2.20851678 6.41703355 1.25 4.5 C0 2 0 2 0 0 Z " fill="#E6E6E6" transform="translate(112,88)"/>
<path d="M0 0 C2.9375 0.5625 2.9375 0.5625 5.3125 2.125 C7.57663895 5.52120843 7.58019755 7.56349302 6.9375 11.5625 C4.875 14.0625 4.875 14.0625 1.9375 15.5625 C-1.91199295 15.5625 -4.10383185 15.42839381 -7 12.8125 C-8.32047421 10.01620167 -8.65857441 8.61738134 -8.0625 5.5625 C-5.56365585 2.25520628 -4.11879585 0.75651352 0 0 Z " fill="#959595" transform="translate(193.0625,4.4375)"/>
<path d="M0 0 C-0.33 0.99 -0.66 1.98 -1 3 C-4.8953053 2.41256743 -8.54348523 1.5665681 -12.3125 0.4375 C-24.55851133 -2.62400283 -36.08093559 -1.55748453 -48.0234375 2.125 C-51 3 -51 3 -54 3 C-53.03497224 0.53663966 -52.48881471 -0.73733816 -50.1171875 -2.01171875 C-49.37726563 -2.23472656 -48.63734375 -2.45773438 -47.875 -2.6875 C-47.15054688 -2.91824219 -46.42609375 -3.14898437 -45.6796875 -3.38671875 C-31.11821628 -6.71930036 -13.60347056 -6.80173528 0 0 Z " fill="#1B1B1B" transform="translate(129,39)"/>
<path d="M0 0 C2.05516816 2.05516816 2.62927189 3.28953553 3.6875 5.9375 C9.89336803 20.14507333 19.60077181 31.31962525 32.52954102 39.74047852 C34.06691823 40.75906825 35.540439 41.87273098 37 43 C37 43.99 37 44.98 37 46 C20.34259037 40.01888343 7.30132908 23.7631682 -0.19921875 8.2734375 C-1.27075996 5.23130587 -1.03562648 3.02721587 0 0 Z " fill="#191919" transform="translate(62,118)"/>
<path d="M0 0 C-3.39204162 3.86556507 -7.04881586 4.23910824 -11.9375 5.1875 C-12.82195801 5.35967041 -13.70641602 5.53184082 -14.61767578 5.70922852 C-28.21686523 8.14169184 -43.82670345 8.89466523 -57 4 C-57.66 3.01 -58.32 2.02 -59 1 C-51.42983317 1.91364082 -51.42983317 1.91364082 -48.43359375 2.515625 C-34.62921124 4.46300092 -20.61520406 3.67061601 -7.265625 -0.22265625 C-4.23114688 -0.9449782 -2.83942874 -1.14007366 0 0 Z " fill="#151515" transform="translate(135,194)"/>
<path d="M0 0 C0.66 0.33 1.32 0.66 2 1 C1.67 1.66 1.34 2.32 1 3 C1.66 3 2.32 3 3 3 C3.33 2.01 3.66 1.02 4 0 C5.65 0 7.3 0 9 0 C9.33 0.66 9.66 1.32 10 2 C7.525 1.505 7.525 1.505 5 1 C6.39195915 3.7839183 8.15575779 3.97898997 11 5 C10.125 8.875 10.125 8.875 9 10 C7.50261876 10.0979057 6.00057108 10.12974864 4.5 10.125 C3.6853125 10.12757812 2.870625 10.13015625 2.03125 10.1328125 C0 10 0 10 -1 9 C-1.33 9.99 -1.66 10.98 -2 12 C-3.65 12.33 -5.3 12.66 -7 13 C-9.29379749 9.55930376 -10 8.27709699 -10 4 C-9.34 4 -8.68 4 -8 4 C-7.67 3.34 -7.34 2.68 -7 2 C-6.01 2 -5.02 2 -4 2 C-3.67 2.99 -3.34 3.98 -3 5 C-2.01 3.35 -1.02 1.7 0 0 Z " fill="#383838" transform="translate(82,18)"/>
<path d="M0 0 C4.7953125 -0.1546875 4.7953125 -0.1546875 9.6875 -0.3125 C11.18543091 -0.38078003 11.18543091 -0.38078003 12.71362305 -0.45043945 C17.18867486 -0.52032691 19.36716404 -0.44782871 23.11328125 2.203125 C25.12362599 5.18326337 25.63137024 6.52097731 25.5 10.0625 C25.4896875 10.89910156 25.479375 11.73570313 25.46875 12.59765625 C24.91399831 15.44075864 23.97590936 16.90301776 22 19 C21.34 19 20.68 19 20 19 C20.495 19.78375 20.99 20.5675 21.5 21.375 C23 24 23 24 23 26 C22.01 26.33 21.02 26.66 20 27 C19.13342884 25.90554162 18.28207276 24.79902219 17.4375 23.6875 C16.96183594 23.07261719 16.48617187 22.45773438 15.99609375 21.82421875 C15.66738281 21.22222656 15.33867188 20.62023437 15 20 C15.33 19.01 15.66 18.02 16 17 C17.65204456 16.29788106 19.31923769 15.63028587 21 15 C22.42041821 12.15916359 22.31452272 10.14522722 22 7 C20.33384094 4.56926396 19.01360344 3.21700767 16.07739258 2.58837891 C13.79266026 2.38176585 11.54419439 2.29256551 9.25 2.25 C6.5275 2.1675 3.805 2.085 1 2 C1 9.92 1 17.84 1 26 C0.67 26 0.34 26 0 26 C0 17.42 0 8.84 0 0 Z " fill="#181818" transform="translate(69,86)"/>
<path d="M0 0 C0.66 0.33 1.32 0.66 2 1 C-0.95624545 4.17392623 -4.02799735 6.43470682 -7.6875 8.75 C-17.63204715 15.33946935 -24.03233589 21.89001202 -30.15234375 32.0234375 C-32 35 -32 35 -34 37 C-34.66 37 -35.32 37 -36 37 C-31.0023219 20.56532779 -18.5161419 10.02518414 -4 2 C-3.25492188 1.5771875 -2.50984375 1.154375 -1.7421875 0.71875 C-0.87980469 0.36296875 -0.87980469 0.36296875 0 0 Z " fill="#131313" transform="translate(75,39)"/>
<path d="M0 0 C2.97 0.99 5.94 1.98 9 3 C9 3.33 9 3.66 9 4 C7.35 4 5.7 4 4 4 C4 5.32 4 6.64 4 8 C4.99 8 5.98 8 7 8 C6.34 12.29 5.68 16.58 5 21 C4.01 21.33 3.02 21.66 2 22 C2.33 23.98 2.66 25.96 3 28 C0.36 26.68 -2.28 25.36 -5 24 C-5 23.01 -5 22.02 -5 21 C-3.02 20.67 -1.04 20.34 1 20 C0.67 19.01 0.34 18.02 0 17 C-2.01508358 16.26676204 -2.01508358 16.26676204 -4 16 C-4 14.35 -4 12.7 -4 11 C-3.01 11 -2.02 11 -1 11 C-1.66 12.32 -2.32 13.64 -3 15 C-2.01 15 -1.02 15 0 15 C0.309375 14.360625 0.61875 13.72125 0.9375 13.0625 C2 11 2 11 3 10 C2.175 9.54625 1.35 9.0925 0.5 8.625 C-0.7375 7.820625 -0.7375 7.820625 -2 7 C-2 6.34 -2 5.68 -2 5 C-0.35 5.33 1.3 5.66 3 6 C3 5.01 3 4.02 3 3 C2.01 2.67 1.02 2.34 0 2 C0 1.34 0 0.68 0 0 Z " fill="#727272" transform="translate(22,69)"/>
<path d="M0 0 C0.99 0.33 1.98 0.66 3 1 C2.43168013 5.12779694 0.06147346 7.94393505 -2.4375 11.125 C-2.88561035 11.69758545 -3.3337207 12.2701709 -3.79541016 12.86010742 C-11.40510355 22.41680701 -19.64239366 29.62882634 -30 36 C-30.66 35.67 -31.32 35.34 -32 35 C-30.78163007 31.34489022 -29.73731732 30.92550604 -26.5625 28.875 C-15.58496026 21.36405176 -6.0208141 12.0416282 0 0 Z " fill="#171717" transform="translate(137,128)"/>
<path d="M0 0 C1.32 0.33 2.64 0.66 4 1 C4 1.99 4 2.98 4 4 C5.65 4 7.3 4 9 4 C8.67 4.66 8.34 5.32 8 6 C6.35 6 4.7 6 3 6 C3 6.66 3 7.32 3 8 C3.99 8.33 4.98 8.66 6 9 C5.34 11.31 4.68 13.62 4 16 C0.04179141 15.43454163 -2.6659053 14.19097652 -6 12 C-5.59791618 6.37082652 -3.71069698 3.99613521 0 0 Z " fill="#EAEAEA" transform="translate(31,53)"/>
<path d="M0 0 C-6.06981542 6.06981542 -19.21839934 6.41003381 -27.375 6.4375 C-33.76186418 6.3613931 -40.21301247 5.98241911 -46 3 C-46.33 2.34 -46.66 1.68 -47 1 C-45.14181641 1.23976562 -45.14181641 1.23976562 -43.24609375 1.484375 C-37.51695917 2.11633899 -31.82227353 2.22100177 -26.0625 2.25 C-25.04220703 2.270625 -24.02191406 2.29125 -22.97070312 2.3125 C-16.88346314 2.34357717 -11.87353239 1.67948063 -6.15405273 -0.45019531 C-3.71222401 -1.07345251 -2.35686195 -0.80737836 0 0 Z " fill="#141414" transform="translate(128,166)"/>
<path d="M0 0 C1 3 1 3 -0.1171875 5.93359375 C-5.81859229 17.29839396 -12.52792318 27.35025783 -22 36 C-22.74609375 34.27734375 -22.74609375 34.27734375 -23 32 C-21.41015625 29.87890625 -21.41015625 29.87890625 -19.0625 27.5625 C-13.69147992 21.90747575 -9.91731575 15.70808319 -6 9 C-1.25882353 1.25882353 -1.25882353 1.25882353 0 0 Z " fill="#171717" transform="translate(191,139)"/>
<path d="M0 0 C8.26246172 3.07744059 13.40629979 15.27900296 17.0625 22.875 C17.3613208 23.48045654 17.6601416 24.08591309 17.96801758 24.7097168 C19.90719017 28.93974341 20.27755286 32.38199281 20 37 C16.57534588 34.71689725 16.50008158 34.13663639 15.375 30.375 C13.58272085 25.1232053 11.21935785 20.43940152 8.5 15.625 C8.12020996 14.94743652 7.74041992 14.26987305 7.34912109 13.57177734 C5.6251362 10.56690519 3.92081522 7.90318847 1.71875 5.2109375 C0 3 0 3 0 0 Z " fill="#1B1B1B" transform="translate(175,40)"/>
<path d="M0 0 C4.2618617 5.23046663 5.26464369 9.25158598 5 16 C2.33333333 16.66666667 -0.33333333 17.33333333 -3 18 C-2.67 16.68 -2.34 15.36 -2 14 C-2.99 13.67 -3.98 13.34 -5 13 C-5 11.35 -5 9.7 -5 8 C-5.66 8 -6.32 8 -7 8 C-7 7.01 -7 6.02 -7 5 C-3.535 4.505 -3.535 4.505 0 4 C0 2.68 0 1.36 0 0 Z " fill="#E0E0E0" transform="translate(181,69)"/>
<path d="M0 0 C0 0.66 0 1.32 0 2 C-1.19753906 2.03738281 -2.39507812 2.07476562 -3.62890625 2.11328125 C-14.08322921 2.51018529 -23.79841225 3.7080682 -34 6 C-35.99767004 6.34702382 -37.99705246 6.68486151 -40 7 C-40.66 6.01 -41.32 5.02 -42 4 C-28.27663937 -1.14913364 -14.45933066 -0.4096574 0 0 Z " fill="#161616" transform="translate(112,6)"/>
<path d="M0 0 C0.99 0 1.98 0 3 0 C3 1.98 3 3.96 3 6 C1.02 6.99 -0.96 7.98 -3 9 C-1.54955729 13.10958767 0.51110752 16.43258745 3 20 C0.375 20.5625 0.375 20.5625 -3 20 C-6.2471093 16.57737128 -8.88358084 12.98744137 -9.1640625 8.19921875 C-9.10992187 7.47347656 -9.05578125 6.74773437 -9 6 C-7.88625 5.7525 -6.7725 5.505 -5.625 5.25 C-1.95384802 4.38994661 -1.95384802 4.38994661 -0.5625 1.875 C-0.376875 1.25625 -0.19125 0.6375 0 0 Z " fill="#EFEFEF" transform="translate(88,95)"/>
<path d="M0 0 C0.33 0 0.66 0 1 0 C1 6.93 1 13.86 1 21 C1.99 21 2.98 21 4 21 C4.19335938 21.90621094 4.38671875 22.81242187 4.5859375 23.74609375 C6.03040864 30.50364438 7.488657 37.25708507 9 44 C8.01 44.66 7.02 45.32 6 46 C-0.21384106 30.67654728 -0.2695529 16.31417069 0 0 Z " fill="#212121" transform="translate(4,92)"/>
<path d="M0 0 C8.90862671 5.2791862 16.86326865 11.48765121 24 19 C23.34 20.32 22.68 21.64 22 23 C21.2265625 22.20335938 20.453125 21.40671875 19.65625 20.5859375 C9.84067274 10.48012833 9.84067274 10.48012833 -2 3 C-1.34 2.67 -0.68 2.34 0 2 C0 1.34 0 0.68 0 0 Z " fill="#242424" transform="translate(152,19)"/>
<path d="M0 0 C1.258125 -0.04125 2.51625 -0.0825 3.8125 -0.125 C4.52019531 -0.14820312 5.22789063 -0.17140625 5.95703125 -0.1953125 C8 0 8 0 11 2 C11.3125 5 11.3125 5 11 8 C9 10 9 10 5.375 10.125 C4.26125 10.08375 3.1475 10.0425 2 10 C2 11.65 2 13.3 2 15 C1.67 15 1.34 15 1 15 C0.67 10.05 0.34 5.1 0 0 Z " fill="#1B1B1B" transform="translate(76,91)"/>
<path d="M0 0 C0.66 0 1.32 0 2 0 C2.99 2.31 3.98 4.62 5 7 C5.66 4.69 6.32 2.38 7 0 C7.99 0 8.98 0 10 0 C10.66 1.98 11.32 3.96 12 6 C12.99 4.68 13.98 3.36 15 2 C14.67 4.97 14.34 7.94 14 11 C13.01 11 12.02 11 11 11 C10.67 9.02 10.34 7.04 10 5 C9.34 5 8.68 5 8 5 C8 6.65 8 8.3 8 10 C4.78600767 10.08927756 2.0937211 9.8534403 -1 9 C-1.66 9 -2.32 9 -3 9 C-2.5020163 5.26512223 -2.12508244 3.18762365 0 0 Z " fill="#444444" transform="translate(107,17)"/>
<path d="M0 0 C0.99 0 1.98 0 3 0 C3 0.66 3 1.32 3 2 C3.99 2.33 4.98 2.66 6 3 C6.6875 5.0625 6.6875 5.0625 7 7 C7.33 6.34 7.66 5.68 8 5 C8.66 5 9.32 5 10 5 C9.5206753 9.31392226 8.2542015 11.16569547 5 14 C4.34 12.02 3.68 10.04 3 8 C2.67 8.99 2.34 9.98 2 11 C1.01 11 0.02 11 -1 11 C-1 10.34 -1 9.68 -1 9 C-1.99 9 -2.98 9 -4 9 C-3.3543999 5.51375944 -2.07639763 2.87501211 0 0 Z " fill="#363636" transform="translate(58,167)"/>
<path d="M0 0 C1.010625 0.4125 2.02125 0.825 3.0625 1.25 C4.01125 1.62125 4.96 1.9925 5.9375 2.375 C6.63875 2.66375 7.34 2.9525 8.0625 3.25 C7.7325 4.24 7.4025 5.23 7.0625 6.25 C7.7225 6.58 8.3825 6.91 9.0625 7.25 C5.2561543 6.57829194 1.71043184 5.52253436 -1.9375 4.25 C-2.2675 4.91 -2.5975 5.57 -2.9375 6.25 C-2.9375 5.59 -2.9375 4.93 -2.9375 4.25 C-3.95070313 4.683125 -3.95070313 4.683125 -4.984375 5.125 C-6.32242188 5.681875 -6.32242188 5.681875 -7.6875 6.25 C-9.01007813 6.806875 -9.01007813 6.806875 -10.359375 7.375 C-12.9375 8.25 -12.9375 8.25 -16.9375 8.25 C-16.9375 7.59 -16.9375 6.93 -16.9375 6.25 C-17.5975 5.92 -18.2575 5.59 -18.9375 5.25 C-17.70773438 4.85167969 -17.70773438 4.85167969 -16.453125 4.4453125 C-15.37546875 4.09210937 -14.2978125 3.73890625 -13.1875 3.375 C-12.12015625 3.02695312 -11.0528125 2.67890625 -9.953125 2.3203125 C-7.0147825 1.36189947 -7.0147825 1.36189947 -4.73046875 0.0703125 C-2.9375 -0.75 -2.9375 -0.75 0 0 Z " fill="#181818" transform="translate(103.9375,54.75)"/>
<path d="M0 0 C4.62176218 4.35797182 4.83587211 9.84053818 5.15625 16.0078125 C5.21837757 22.0807825 4.80224086 27.98319354 4 34 C2.515 34.495 2.515 34.495 1 35 C1.00523682 34.25951416 1.01047363 33.51902832 1.01586914 32.75610352 C1.03682557 29.35824452 1.04971908 25.96039919 1.0625 22.5625 C1.07087891 21.39783203 1.07925781 20.23316406 1.08789062 19.03320312 C1.10602151 12.59673798 0.86649876 6.37934125 0 0 Z " fill="#070707" transform="translate(166,83)"/>
<path d="M0 0 C2.05516816 2.05516816 2.62927189 3.28953553 3.6875 5.9375 C6.62955186 12.7874849 10.87906695 18.81860043 15 25 C14.01 25.66 13.02 26.32 12 27 C-1.19537512 9.77725232 -1.19537512 9.77725232 -0.8125 2.375 C-0.544375 1.59125 -0.27625 0.8075 0 0 Z " fill="#1F1F1F" transform="translate(62,118)"/>
<path d="M0 0 C3.41158256 1.13719419 4.11854601 2.04342944 6 5 C6 5.66 6 6.32 6 7 C6.66 7 7.32 7 8 7 C7.67 7.99 7.34 8.98 7 10 C6.34 10 5.68 10 5 10 C5 10.99 5 11.98 5 13 C3.02 13.33 1.04 13.66 -1 14 C-1 13.01 -1 12.02 -1 11 C-1.99 10.67 -2.98 10.34 -4 10 C-3.6875 8.125 -3.6875 8.125 -3 6 C-2.01 5.34 -1.02 4.68 0 4 C0 2.68 0 1.36 0 0 Z " fill="#DDDDDD" transform="translate(166,46)"/>
<path d="M0 0 C0.66 0 1.32 0 2 0 C2.99 3.3 3.98 6.6 5 10 C4.34 10 3.68 10 3 10 C2.34 10.66 1.68 11.32 1 12 C0.34 11.67 -0.32 11.34 -1 11 C-1.33 11.99 -1.66 12.98 -2 14 C-2.99 13.67 -3.98 13.34 -5 13 C-5 12.34 -5 11.68 -5 11 C-5.66 11 -6.32 11 -7 11 C-6.814375 10.38125 -6.62875 9.7625 -6.4375 9.125 C-5.76313824 6.95839822 -5.76313824 6.95839822 -7 5 C-4.6875 3.875 -4.6875 3.875 -2 3 C-1.01 3.66 -0.02 4.32 1 5 C0.67 3.35 0.34 1.7 0 0 Z " fill="#E5E5E5" transform="translate(49,34)"/>
<path d="M0 0 C0.82242188 0.00451172 1.64484375 0.00902344 2.4921875 0.01367188 C4.49482396 0.02531511 6.49742227 0.04324444 8.5 0.0625 C8.5 0.3925 8.5 0.7225 8.5 1.0625 C6.69402344 1.13597656 6.69402344 1.13597656 4.8515625 1.2109375 C3.27601802 1.28596343 1.70049834 1.36151133 0.125 1.4375 C-0.6690625 1.4684375 -1.463125 1.499375 -2.28125 1.53125 C-6.86667375 1.58066421 -6.86667375 1.58066421 -10.5 4.0625 C-12.97999658 4.84989173 -15.42013679 5.54809448 -17.9375 6.1875 C-18.9594043 6.46013672 -18.9594043 6.46013672 -20.00195312 6.73828125 C-22.91655708 7.49761979 -25.47561204 8.0625 -28.5 8.0625 C-27.53497224 5.59913966 -26.98881471 4.32516184 -24.6171875 3.05078125 C-23.87726563 2.82777344 -23.13734375 2.60476562 -22.375 2.375 C-21.65054688 2.14425781 -20.92609375 1.91351563 -20.1796875 1.67578125 C-13.44308242 0.13402178 -6.87442817 -0.07277489 0 0 Z " fill="#383838" transform="translate(103.5,33.9375)"/>
<path d="M0 0 C0.89847656 0.16371094 1.79695313 0.32742187 2.72265625 0.49609375 C8.26941327 1.28848761 13.84740921 1.1056283 19.4375 1.0625 C20.55060547 1.05798828 21.66371094 1.05347656 22.81054688 1.04882812 C25.54042101 1.03711193 28.27018174 1.02070699 31 1 C31.33 1.99 31.66 2.98 32 4 C22.12069169 5.84590962 9.27013166 6.63506583 0 2 C0 1.34 0 0.68 0 0 Z " fill="#050505" transform="translate(111,59)"/>
<path d="M0 0 C0.66 0.33 1.32 0.66 2 1 C1.67 1.66 1.34 2.32 1 3 C1.66 3 2.32 3 3 3 C3.33 2.01 3.66 1.02 4 0 C5.65 0 7.3 0 9 0 C9.33 0.66 9.66 1.32 10 2 C8.35 1.67 6.7 1.34 5 1 C6.39195915 3.7839183 8.15575779 3.97898997 11 5 C10.125 8.875 10.125 8.875 9 10 C5.41454856 10.39838349 3.6019651 10.40131007 0.5625 8.375 C-1 6 -1 6 -0.75 2.75 C-0.5025 1.8425 -0.255 0.935 0 0 Z " fill="#D1D1D1" transform="translate(82,18)"/>
<path d="M0 0 C4.11450594 0.93210885 7.76548279 2.63968375 11.5625 4.4375 C12.23474609 4.75009766 12.90699219 5.06269531 13.59960938 5.38476562 C16.55365982 6.77231861 19.27934458 8.18622972 22 10 C21.67 10.33 21.34 10.66 21 11 C22.98 11.66 24.96 12.32 27 13 C22.18514129 14.82122315 18.72481387 12.56527804 14.26171875 10.60546875 C9.27342321 8.15015202 4.3892658 5.43019394 0 2 C0 1.34 0 0.68 0 0 Z " fill="#1B1B1B" transform="translate(61,157)"/>
<path d="M0 0 C2.31243792 -0.02685412 4.6249627 -0.04632841 6.9375 -0.0625 C8.22527344 -0.07410156 9.51304688 -0.08570313 10.83984375 -0.09765625 C14 0 14 0 15 1 C15.14115161 3.67058851 15.04247107 6.32432238 15 9 C14.67 9 14.34 9 14 9 C14 6.69 14 4.38 14 2 C12.35 2.33 10.7 2.66 9 3 C8.67 5.31 8.34 7.62 8 10 C7.34 10 6.68 10 6 10 C6 7.36 6 4.72 6 2 C5.01 2.33 4.02 2.66 3 3 C1.77030122 6.51190809 1.77030122 6.51190809 1 10 C0.34 10 -0.32 10 -1 10 C-0.67 6.7 -0.34 3.4 0 0 Z " fill="#6C6C6C" transform="translate(85,179)"/>
<path d="M0 0 C0.33 0 0.66 0 1 0 C0.85636473 1.37523135 0.70996483 2.75017402 0.5625 4.125 C0.48128906 4.89070313 0.40007813 5.65640625 0.31640625 6.4453125 C0.10156751 8.1799364 -0.17295096 9.90799252 -0.5 11.625 C-1.20186256 16.36257228 -1.36488361 21.0933312 -1.5625 25.875 C-1.60568359 26.84953125 -1.64886719 27.8240625 -1.69335938 28.828125 C-1.79882274 31.21862802 -1.90094175 33.60922444 -2 36 C-2.66 36 -3.32 36 -4 36 C-4.63849303 10.23762479 -4.63849303 10.23762479 -1 1 C-0.67 0.67 -0.34 0.34 0 0 Z " fill="#020202" transform="translate(9,77)"/>
<path d="M0 0 C2.69282475 4.03923713 3.13300939 6.95536152 3.0625 11.75 C3.05347656 12.54921875 3.04445312 13.3484375 3.03515625 14.171875 C3.01775391 15.07679687 3.01775391 15.07679687 3 16 C3.66 16 4.32 16 5 16 C5 24.91 5 33.82 5 43 C4.67 43 4.34 43 4 43 C4 34.75 4 26.5 4 18 C3.01 18.33 2.02 18.66 1 19 C0.4431237 16.39825 -0.09589581 13.79490754 -0.625 11.1875 C-0.78484375 10.44951172 -0.9446875 9.71152344 -1.109375 8.95117188 C-2.2265625 3.33984375 -2.2265625 3.33984375 0 0 Z " fill="#424242" transform="translate(195,73)"/>
<path d="M0 0 C0.33 0 0.66 0 1 0 C1 19.8 1 39.6 1 60 C1.66 60.33 2.32 60.66 3 61 C2.34 61 1.68 61 1 61 C1 61.66 1 62.32 1 63 C1.99 63.33 2.98 63.66 4 64 C2.02 64.99 2.02 64.99 0 66 C0 44.22 0 22.44 0 0 Z " fill="#F1F1F1" transform="translate(104,95)"/>
<path d="M0 0 C0.66 0.33 1.32 0.66 2 1 C1.36191406 1.60328125 0.72382812 2.2065625 0.06640625 2.828125 C-0.75988281 3.62734375 -1.58617188 4.4265625 -2.4375 5.25 C-3.26121094 6.03890625 -4.08492187 6.8278125 -4.93359375 7.640625 C-7.04595573 10.05247119 -7.37080629 10.9913101 -8 14 C-9.09050915 15.90770774 -10.24221547 17.78113072 -11.4375 19.625 C-12.05496094 20.58664063 -12.67242187 21.54828125 -13.30859375 22.5390625 C-15 25 -15 25 -17 27 C-17.66 27 -18.32 27 -19 27 C-15.58639302 15.77448475 -8.47121159 7.85760271 0 0 Z " fill="#242424" transform="translate(58,49)"/>
<path d="M0 0 C3.42817291 3.93745802 5.64441078 7.93129309 7.8125 12.625 C8.29879883 13.62660156 8.29879883 13.62660156 8.79492188 14.6484375 C11.12249128 19.63252616 11.12249128 19.63252616 10 23 C9.67 22.34 9.34 21.68 9 21 C8.34 21.33 7.68 21.66 7 22 C6.75765625 21.3709375 6.5153125 20.741875 6.265625 20.09375 C4.10091248 14.56540727 1.72999175 9.27170821 -1 4 C-1.33 3.34 -1.66 2.68 -2 2 C-1.34 2 -0.68 2 0 2 C0 1.34 0 0.68 0 0 Z " fill="#2E2E2E" transform="translate(158,63)"/>
<path d="M0 0 C0.66 0.66 1.32 1.32 2 2 C1.67386719 2.60585938 1.34773438 3.21171875 1.01171875 3.8359375 C-2.0754648 9.75531598 -4.31048758 15.54413955 -6 22 C-6.66 22 -7.32 22 -8 22 C-8.66 22.66 -9.32 23.32 -10 24 C-9.37660249 18.64561317 -7.62486538 14.11449509 -5.5625 9.1875 C-5.09360352 8.02444336 -5.09360352 8.02444336 -4.61523438 6.83789062 C-2.25139617 1.12569808 -2.25139617 1.12569808 0 0 Z " fill="#151515" transform="translate(17,56)"/>
<path d="M0 0 C2.5625 0.25 2.5625 0.25 5 1 C6.36623674 3.73247348 6.128426 5.98198902 6 9 C5 10 5 10 2.5625 10.25 C1.716875 10.1675 0.87125 10.085 0 10 C-2.14915785 6.77626323 -2.38286803 5.73296326 -2 2 C-1.34 1.34 -0.68 0.68 0 0 Z " fill="#393939" transform="translate(121,177)"/>
<path d="M0 0 C6.6 0 13.2 0 20 0 C20.33 0.99 20.66 1.98 21 3 C14.4 2.67 7.8 2.34 1 2 C1 9.92 1 17.84 1 26 C0.67 26 0.34 26 0 26 C0 17.42 0 8.84 0 0 Z " fill="#020202" transform="translate(69,86)"/>
<path d="M0 0 C-1.875 5.875 -1.875 5.875 -3 7 C-0.69 7 1.62 7 4 7 C0.60102327 9.26598448 -0.56319173 9.23742654 -4.54296875 9.1953125 C-6.15268555 9.18564453 -6.15268555 9.18564453 -7.79492188 9.17578125 C-9.47424805 9.15064453 -9.47424805 9.15064453 -11.1875 9.125 C-12.31865234 9.11597656 -13.44980469 9.10695312 -14.61523438 9.09765625 C-17.41036828 9.07406862 -20.20507845 9.041153 -23 9 C-23 8.67 -23 8.34 -23 8 C-16.565 7.505 -16.565 7.505 -10 7 C-10 6.34 -10 5.68 -10 5 C-8.3203125 3.7109375 -8.3203125 3.7109375 -6.125 2.375 C-5.40570313 1.92898437 -4.68640625 1.48296875 -3.9453125 1.0234375 C-2 0 -2 0 0 0 Z " fill="#D9D9D9" transform="translate(113,160)"/>
<path d="M0 0 C7.92 0.33 15.84 0.66 24 1 C24 1.66 24 2.32 24 3 C15.30039898 4.54659574 6.71634238 4.31567432 -2 3 C-1.34 2.67 -0.68 2.34 0 2 C0 1.34 0 0.68 0 0 Z " fill="#030303" transform="translate(63,60)"/>
<path d="M0 0 C0.66 0.33 1.32 0.66 2 1 C-0.45721379 6.06800345 -4.42451491 9.79900539 -9 13 C-9.99 13 -10.98 13 -12 13 C-13.68798827 14.43750191 -13.68798827 14.43750191 -15 16 C-15.66 15.67 -16.32 15.34 -17 15 C-11.70317171 9.44338176 -6.16853533 4.56928543 0 0 Z " fill="#1C1C1C" transform="translate(45,23)"/>
<path d="M0 0 C1.32 0 2.64 0 4 0 C2.91293912 5.6399276 1.78678906 10.94249394 -1 16 C-3.6875 17.4375 -3.6875 17.4375 -6 18 C-4 12 -2 6 0 0 Z " fill="#2F2F2F" transform="translate(166,117)"/>
<path d="M0 0 C3.63 0 7.26 0 11 0 C11.33 1.98 11.66 3.96 12 6 C11.01 5.67 10.02 5.34 9 5 C9 4.34 9 3.68 9 3 C7.35 3 5.7 3 4 3 C4.99 5.31 5.98 7.62 7 10 C6.01 10 5.02 10 4 10 C3.32845067 8.71086513 2.66291141 7.41859796 2 6.125 C1.62875 5.40570313 1.2575 4.68640625 0.875 3.9453125 C0 2 0 2 0 0 Z " fill="#1D1D1D" transform="translate(108,85)"/>
<path d="M0 0 C2.0625 0.4375 2.0625 0.4375 4 1 C4 1.99 4 2.98 4 4 C5.65 4 7.3 4 9 4 C8.67 4.66 8.34 5.32 8 6 C6.35 6 4.7 6 3 6 C3 6.66 3 7.32 3 8 C3.99 8.33 4.98 8.66 6 9 C5.01 9.33 4.02 9.66 3 10 C-0.1875 8.0625 -0.1875 8.0625 -3 6 C-1.125 1.125 -1.125 1.125 0 0 Z " fill="#494949" transform="translate(31,53)"/>
<path d="M0 0 C0.66 0 1.32 0 2 0 C1.67 2.31 1.34 4.62 1 7 C1.598125 6.67 2.19625 6.34 2.8125 6 C5 5 5 5 8 5 C6.63055898 7.94956528 5.12169591 10.52468811 3 13 C2.34 13 1.68 13 1 13 C1.33 11.68 1.66 10.36 2 9 C1.01 9.33 0.02 9.66 -1 10 C-1 8.35 -1 6.7 -1 5 C-2.98 5.99 -2.98 5.99 -5 7 C-1.125 1.125 -1.125 1.125 0 0 Z " fill="#292929" transform="translate(154,35)"/>
<path d="M0 0 C1.65 0 3.3 0 5 0 C3.46527032 4.72224516 1.76054874 9.35855331 0 14 C-1.32 12.68 -2.64 11.36 -4 10 C-2.68 6.7 -1.36 3.4 0 0 Z " fill="#DEDEDE" transform="translate(130,88)"/>
<path d="M0 0 C0.33 1.32 0.66 2.64 1 4 C1.66 4 2.32 4 3 4 C1.74874616 7.75376152 0.4347596 8.24073289 -3 10 C-3.66 10 -4.32 10 -5 10 C-5 9.01 -5 8.02 -5 7 C-5.66 7 -6.32 7 -7 7 C-6.34 5.02 -5.68 3.04 -5 1 C-3.35 0.67 -1.7 0.34 0 0 Z " fill="#818181" transform="translate(176,58)"/>
<path d="M0 0 C0 2.31 0 4.62 0 7 C-2.66666667 7.66666667 -5.33333333 8.33333333 -8 9 C-7.67 7.68 -7.34 6.36 -7 5 C-7.99 4.67 -8.98 4.34 -10 4 C-10 3.34 -10 2.68 -10 2 C-3.375 0 -3.375 0 0 0 Z " fill="#6B6B6B" transform="translate(186,78)"/>
<path d="M0 0 C1.23556641 0.01740234 1.23556641 0.01740234 2.49609375 0.03515625 C3.32238281 0.04417969 4.14867187 0.05320312 5 0.0625 C5.63808594 0.07410156 6.27617187 0.08570312 6.93359375 0.09765625 C5.61359375 1.74765625 4.29359375 3.39765625 2.93359375 5.09765625 C4.25359375 5.09765625 5.57359375 5.09765625 6.93359375 5.09765625 C6.93359375 5.75765625 6.93359375 6.41765625 6.93359375 7.09765625 C3.63359375 7.09765625 0.33359375 7.09765625 -3.06640625 7.09765625 C-3.10894981 5.09810879 -3.10721408 3.09723989 -3.06640625 1.09765625 C-2.06640625 0.09765625 -2.06640625 0.09765625 0 0 Z " fill="#525252" transform="translate(18.06640625,97.90234375)"/>
<path d="M0 0 C0.66 0 1.32 0 2 0 C2 8.25 2 16.5 2 25 C1.34 25 0.68 25 0 25 C-0.33 25.66 -0.66 26.32 -1 27 C-0.67 18.09 -0.34 9.18 0 0 Z " fill="#020202" transform="translate(197,91)"/>
<path d="M0 0 C1.32 0.33 2.64 0.66 4 1 C4.33 4.63 4.66 8.26 5 12 C4.34 12 3.68 12 3 12 C2.34 10.02 1.68 8.04 1 6 C0.67 6 0.34 6 0 6 C-0.33 8.31 -0.66 10.62 -1 13 C-1.99 12.67 -2.98 12.34 -4 12 C-3.34 12 -2.68 12 -2 12 C-2 9.36 -2 6.72 -2 4 C-3.65 3.67 -5.3 3.34 -7 3 C-7 2.67 -7 2.34 -7 2 C-4.69 2 -2.38 2 0 2 C0 1.34 0 0.68 0 0 Z " fill="#8C8C8C" transform="translate(113,177)"/>
<path d="M0 0 C0.99 0.33 1.98 0.66 3 1 C2.37832736 4.29338481 1.21744256 6.48480185 -0.75 9.1875 C-1.48476562 10.22970703 -1.48476562 10.22970703 -2.234375 11.29296875 C-4.41597742 13.40217286 -6.03078995 13.66167164 -9 14 C-7.87540329 12.22891052 -6.75030797 10.45813764 -5.625 8.6875 C-4.99851563 7.70136719 -4.37203125 6.71523437 -3.7265625 5.69921875 C-2.50348387 3.78712071 -1.2590644 1.8885966 0 0 Z " fill="#292929" transform="translate(137,128)"/>
<path d="M0 0 C0.33 0 0.66 0 1 0 C1 8.91 1 17.82 1 27 C4.465 26.505 4.465 26.505 8 26 C8 26.99 8 27.98 8 29 C5.03 29 2.06 29 -1 29 C-0.67 19.43 -0.34 9.86 0 0 Z " fill="#111111" transform="translate(70,88)"/>
<path d="M0 0 C1.97194115 1.97194115 2.832365 3.50904533 4 6 C4.83333333 8.16666667 4.83333333 8.16666667 7 9 C6.01 10.98 5.02 12.96 4 15 C2 14 2 14 0.9296875 11.27734375 C0.58164063 10.17519531 0.23359375 9.07304688 -0.125 7.9375 C-0.47820312 6.83277344 -0.83140625 5.72804688 -1.1953125 4.58984375 C-1.46085937 3.73519531 -1.72640625 2.88054687 -2 2 C-1.34 2 -0.68 2 0 2 C0 1.34 0 0.68 0 0 Z " fill="#272727" transform="translate(120,89)"/>
<path d="M0 0 C0.33 0 0.66 0 1 0 C1 6.93 1 13.86 1 21 C1.99 21 2.98 21 4 21 C4.33 23.64 4.66 26.28 5 29 C3.68 29 2.36 29 1 29 C-0.30433619 23.06372979 -0.11086318 17.16667748 -0.0625 11.125 C-0.05798828 10.05507812 -0.05347656 8.98515625 -0.04882812 7.8828125 C-0.03709749 5.25515014 -0.02068228 2.62760462 0 0 Z " fill="#4F4F4F" transform="translate(4,92)"/>
<path d="M0 0 C1.828125 0.16015625 1.828125 0.16015625 4 1 C5.484375 3.43359375 5.484375 3.43359375 6.75 6.4375 C7.39195313 7.92056641 7.39195313 7.92056641 8.046875 9.43359375 C9 12 9 12 9 14 C8.01 14.33 7.02 14.66 6 15 C3.36634013 10.0778687 1.35524176 5.42096702 0 0 Z " fill="#292929" transform="translate(112,95)"/>
<path d="M0 0 C8.57142857 -0.28571429 8.57142857 -0.28571429 12 2 C10.35 2 8.7 2 7 2 C7 2.66 7 3.32 7 4 C-5.87 3.505 -5.87 3.505 -19 3 C-19 2.67 -19 2.34 -19 2 C-12.73 2 -6.46 2 0 2 C0 1.34 0 0.68 0 0 Z " fill="#535353" transform="translate(112,6)"/>
<path d="M0 0 C0.66 0 1.32 0 2 0 C1.67 1.65 1.34 3.3 1 5 C1.66 5 2.32 5 3 5 C3.33 3.68 3.66 2.36 4 1 C5.9375 0.4375 5.9375 0.4375 8 0 C9 1 9 1 9.0625 3.5625 C9.041875 4.366875 9.02125 5.17125 9 6 C8.01 6.33 7.02 6.66 6 7 C6 5.68 6 4.36 6 3 C5.34 4.32 4.68 5.64 4 7 C2.35 6.67 0.7 6.34 -1 6 C-1.042721 4.33388095 -1.04063832 2.66617115 -1 1 C-0.67 0.67 -0.34 0.34 0 0 Z " fill="#414141" transform="translate(180,97)"/>
<path d="M0 0 C3.35861695 1.43409972 5.35874939 3.19369321 7.75 5.9375 C8.36359375 6.62714844 8.9771875 7.31679688 9.609375 8.02734375 C11 10 11 10 11 13 C7.33213607 11.49650623 5.31089607 9.36271208 2.75 6.375 C2.04359375 5.55773438 1.3371875 4.74046875 0.609375 3.8984375 C0.07828125 3.27195313 -0.4528125 2.64546875 -1 2 C-0.67 1.34 -0.34 0.68 0 0 Z " fill="#111111" transform="translate(147,52)"/>
<path d="M0 0 C0.99 0 1.98 0 3 0 C3 3.3 3 6.6 3 10 C2.34 10 1.68 10 1 10 C1 9.01 1 8.02 1 7 C-0.98 7.33 -2.96 7.66 -5 8 C-2.25 2.25 -2.25 2.25 0 0 Z " fill="#2F2F2F" transform="translate(127,21)"/>
<path d="M0 0 C1.65 0 3.3 0 5 0 C5.33 1.65 5.66 3.3 6 5 C5.34 4.67 4.68 4.34 4 4 C4 3.34 4 2.68 4 2 C3.34 2 2.68 2 2 2 C2.99 3.485 2.99 3.485 4 5 C3.625 7.6875 3.625 7.6875 3 10 C1.68 10 0.36 10 -1 10 C-1.66 8.35 -2.32 6.7 -3 5 C-2.01 5.33 -1.02 5.66 0 6 C0 6.66 0 7.32 0 8 C0.66 8 1.32 8 2 8 C1.34 7.01 0.68 6.02 0 5 C-0.125 2.3125 -0.125 2.3125 0 0 Z " fill="#474747" transform="translate(137,25)"/>
<path d="M0 0 C0.33 0.99 0.66 1.98 1 3 C0.34 3 -0.32 3 -1 3 C-0.67 4.98 -0.34 6.96 0 9 C-2.64 7.68 -5.28 6.36 -8 5 C-8 4.01 -8 3.02 -8 2 C-5.36 1.34 -2.72 0.68 0 0 Z " fill="#424242" transform="translate(25,88)"/>
<path d="M0 0 C0.66 0 1.32 0 2 0 C3.85776765 3.13498292 4.20140476 5.37471432 4 9 C0.535 7.02 0.535 7.02 -3 5 C-2.34 6.98 -1.68 8.96 -1 11 C-1.66 11 -2.32 11 -3 11 C-3.99 8.03 -4.98 5.06 -6 2 C-2 3 -2 3 0 4 C0 2.68 0 1.36 0 0 Z " fill="#222222" transform="translate(133,174)"/>
<path d="M0 0 C2.0625 0.4375 2.0625 0.4375 4 1 C2.68 1.33 1.36 1.66 0 2 C0 2.66 0 3.32 0 4 C1.65 4 3.3 4 5 4 C5.66 5.32 6.32 6.64 7 8 C4 10 4 10 0 10 C0 9.34 0 8.68 0 8 C1.32 8 2.64 8 4 8 C4 7.34 4 6.68 4 6 C2.02 6 0.04 6 -2 6 C-1.125 1.125 -1.125 1.125 0 0 Z " fill="#363636" transform="translate(139,170)"/>
<path d="M0 0 C0.99 0 1.98 0 3 0 C3 0.66 3 1.32 3 2 C3.66 2.33 4.32 2.66 5 3 C4.34 3 3.68 3 3 3 C2.71125 3.763125 2.4225 4.52625 2.125 5.3125 C1 8 1 8 -1 11 C-1 10.34 -1 9.68 -1 9 C-1.99 9 -2.98 9 -4 9 C-3.3543999 5.51375944 -2.07639763 2.87501211 0 0 Z " fill="#C9C9C9" transform="translate(58,167)"/>
<path d="M0 0 C0.33 0 0.66 0 1 0 C1.48241483 5.78897798 0.47981859 10.2283424 -3 15 C-3.99 15.33 -4.98 15.66 -6 16 C-5.37183502 12.05050296 -4.1354471 8.80107972 -2.4375 5.1875 C-1.98246094 4.21167969 -1.52742187 3.23585938 -1.05859375 2.23046875 C-0.70925781 1.49441406 -0.35992187 0.75835937 0 0 Z " fill="#0B0B0B" transform="translate(144,113)"/>
<path d="M0 0 C2.97 0.99 5.94 1.98 9 3 C9 3.33 9 3.66 9 4 C7.35 4 5.7 4 4 4 C4 5.32 4 6.64 4 8 C4.99 8 5.98 8 7 8 C7 8.66 7 9.32 7 10 C3.26512223 9.5020163 1.18762365 9.12508244 -2 7 C-2 6.34 -2 5.68 -2 5 C0.475 5.495 0.475 5.495 3 6 C3 5.01 3 4.02 3 3 C2.01 2.67 1.02 2.34 0 2 C0 1.34 0 0.68 0 0 Z " fill="#303030" transform="translate(22,69)"/>
<path d="M0 0 C3.05398761 1.19887943 5.30831155 2.96504483 7.75 5.125 C8.67039062 5.93324219 8.67039062 5.93324219 9.609375 6.7578125 C10.06828125 7.16773438 10.5271875 7.57765625 11 8 C10.01 8.66 9.02 9.32 8 10 C6.51726301 8.87970983 5.03891114 7.75361382 3.5625 6.625 C2.32693359 5.68527344 2.32693359 5.68527344 1.06640625 4.7265625 C-1 3 -1 3 -2 1 C-1.34 0.67 -0.68 0.34 0 0 Z " fill="#181818" transform="translate(37,173)"/>
<path d="M0 0 C0.66 0 1.32 0 2 0 C2 3.3 2 6.6 2 10 C1.34 10 0.68 10 0 10 C0 8.68 0 7.36 0 6 C-1.32 6 -2.64 6 -4 6 C-4 7.32 -4 8.64 -4 10 C-4.66 10 -5.32 10 -6 10 C-6 7.03 -6 4.06 -6 1 C-5.34 1 -4.68 1 -4 1 C-4 2.32 -4 3.64 -4 5 C-2.68 5 -1.36 5 0 5 C0 3.35 0 1.7 0 0 Z " fill="#343434" transform="translate(100,16)"/>
<path d="M0 0 C0.33 0.99 0.66 1.98 1 3 C1.66 3 2.32 3 3 3 C1.63029745 5.95012857 0.17390875 8.5652222 -2 11 C-2.99 11 -3.98 11 -5 11 C-5.33 10.01 -5.66 9.02 -6 8 C-4.78515625 5.95703125 -4.78515625 5.95703125 -3.0625 3.8125 C-2.49660156 3.09707031 -1.93070313 2.38164063 -1.34765625 1.64453125 C-0.90292969 1.10183594 -0.45820313 0.55914062 0 0 Z " fill="#909090" transform="translate(162,40)"/>
<path d="M0 0 C1.65 0.33 3.3 0.66 5 1 C5.33 1.99 5.66 2.98 6 4 C5.34 4 4.68 4 4 4 C4 3.34 4 2.68 4 2 C3.01 2 2.02 2 1 2 C1.515625 2.5775 2.03125 3.155 2.5625 3.75 C4 6 4 6 3.6875 8.25 C3.460625 8.8275 3.23375 9.405 3 10 C1.35 9.67 -0.3 9.34 -2 9 C-2.33 8.01 -2.66 7.02 -3 6 C-2.34 6 -1.68 6 -1 6 C-1 6.66 -1 7.32 -1 8 C-0.01 8 0.98 8 2 8 C1.484375 7.4225 0.96875 6.845 0.4375 6.25 C-1 4 -1 4 -0.6875 1.75 C-0.3471875 0.88375 -0.3471875 0.88375 0 0 Z " fill="#282828" transform="translate(70,174)"/>
<path d="M0 0 C1.670625 0.061875 1.670625 0.061875 3.375 0.125 C3.375 0.785 3.375 1.445 3.375 2.125 C1.065 2.125 -1.245 2.125 -3.625 2.125 C-3.625 3.115 -3.625 4.105 -3.625 5.125 C-0.985 5.125 1.655 5.125 4.375 5.125 C4.375 5.785 4.375 6.445 4.375 7.125 C1.405 7.125 -1.565 7.125 -4.625 7.125 C-5.25 4.75 -5.25 4.75 -5.625 2.125 C-3.625 0.125 -3.625 0.125 0 0 Z " fill="#3D3D3D" transform="translate(183.625,87.875)"/>
<path d="M0 0 C0.99 0 1.98 0 3 0 C3 1.98 3 3.96 3 6 C-2.625 9 -2.625 9 -6 9 C-6 8.34 -6 7.68 -6 7 C-5.195625 6.360625 -4.39125 5.72125 -3.5625 5.0625 C-0.76279268 3.18964068 -0.76279268 3.18964068 0 0 Z " fill="#F3F3F3" transform="translate(88,95)"/>
<path d="M0 0 C0.66 0.33 1.32 0.66 2 1 C1.34 2.32 0.68 3.64 0 5 C1.32 4.34 2.64 3.68 4 3 C3.67 4.32 3.34 5.64 3 7 C3.66 7 4.32 7 5 7 C5.33 6.34 5.66 5.68 6 5 C6.66 5 7.32 5 8 5 C7.1875 6.9375 7.1875 6.9375 6 9 C5.01 9.33 4.02 9.66 3 10 C0.7363436 8.59554165 -1.0208685 6.8032087 -3 5 C-1.125 1.125 -1.125 1.125 0 0 Z " fill="#343434" transform="translate(42,40)"/>
<path d="M0 0 C6.27 0 12.54 0 19 0 C18.01 0.495 18.01 0.495 17 1 C17 1.66 17 2.32 17 3 C11.06 2.67 5.12 2.34 -1 2 C-0.67 1.34 -0.34 0.68 0 0 Z " fill="#060606" transform="translate(95,35)"/>
<path d="M0 0 C0.66 0 1.32 0 2 0 C2.66 1.98 3.32 3.96 4 6 C4.66 6 5.32 6 6 6 C6.33 5.01 6.66 4.02 7 3 C7.93423645 6.01031744 8.04449911 6.86650268 7 10 C5.68 10 4.36 10 3 10 C0 3.375 0 3.375 0 0 Z " fill="#0B0B0B" transform="translate(119,109)"/>
<path d="M0 0 C0.66 0 1.32 0 2 0 C1.34 1.65 0.68 3.3 0 5 C1.65 4.34 3.3 3.68 5 3 C4.34 4.65 3.68 6.3 3 8 C4.65 7.01 6.3 6.02 8 5 C7.34 6.65 6.68 8.3 6 10 C2.64404172 9.40072174 0.62198774 8.15377564 -2 6 C-1.49396008 3.83125748 -1.00016187 2.00032373 0 0 Z " fill="#2D2D2D" transform="translate(36,46)"/>
<path d="M0 0 C0.33 0 0.66 0 1 0 C2.19287411 3.87684087 3 6.91621923 3 11 C1.125 10.75 1.125 10.75 -1 10 C-3.02755186 7.06004981 -3 5.72295997 -3 2 C-2.34 2 -1.68 2 -1 2 C-0.67 1.34 -0.34 0.68 0 0 Z " fill="#8D8D8D" transform="translate(75,20)"/>
<path d="M0 0 C-1.56641751 4.30764815 -3.68336156 8.06171464 -6 12 C-6.99 12 -7.98 12 -9 12 C-7.77759242 7.95665186 -6.39561694 4.49360803 -4 1 C-2 0 -2 0 0 0 Z " fill="#111111" transform="translate(48,64)"/>
<path d="M0 0 C4.455 0.99 4.455 0.99 9 2 C8.67 2.66 8.34 3.32 8 4 C9.98 4.66 11.96 5.32 14 6 C10.30962722 7.37095624 8.29116165 6.60010967 4.75 5.0625 C3.85796875 4.68222656 2.9659375 4.30195313 2.046875 3.91015625 C1.37140625 3.60980469 0.6959375 3.30945313 0 3 C0 2.01 0 1.02 0 0 Z " fill="#3D3D3D" transform="translate(74,164)"/>
<path d="M0 0 C0.99 0.33 1.98 0.66 3 1 C2.34 3.64 1.68 6.28 1 9 C0.38125 8.2884375 0.38125 8.2884375 -0.25 7.5625 C-2.182185 5.83733482 -3.48192275 5.43415125 -6 5 C-1.60546875 0.99609375 -1.60546875 0.99609375 0 0 Z " fill="#333333" transform="translate(147,31)"/>
<path d="M0 0 C1.98 0.66 3.96 1.32 6 2 C5.34 2.66 4.68 3.32 4 4 C3.01 4 2.02 4 1 4 C1 9.94 1 15.88 1 22 C0.67 22 0.34 22 0 22 C0 14.74 0 7.48 0 0 Z " fill="#F0F0F0" transform="translate(104,59)"/>
<path d="M0 0 C0.66 0 1.32 0 2 0 C2.99 3.3 3.98 6.6 5 10 C1.66666667 8.33333333 -1.66666667 6.66666667 -5 5 C-4.67 4.34 -4.34 3.68 -4 3 C-1.525 3.99 -1.525 3.99 1 5 C0.67 3.35 0.34 1.7 0 0 Z " fill="#3B3B3B" transform="translate(49,34)"/>
<path d="M0 0 C0.99 0 1.98 0 3 0 C3 0.99 3 1.98 3 3 C4.31266518 4.35368596 5.64567325 5.68799596 7 7 C7 7.66 7 8.32 7 9 C6.01 9.33 5.02 9.66 4 10 C3.13342884 8.90554162 2.28207276 7.79902219 1.4375 6.6875 C0.96183594 6.07261719 0.48617187 5.45773438 -0.00390625 4.82421875 C-0.33261719 4.22222656 -0.66132812 3.62023437 -1 3 C-0.67 2.01 -0.34 1.02 0 0 Z " fill="#303030" transform="translate(85,103)"/>
<path d="M0 0 C1.65 0 3.3 0 5 0 C5 0.66 5 1.32 5 2 C3.68 2 2.36 2 1 2 C1 2.66 1 3.32 1 4 C2.98 4 4.96 4 7 4 C6.67 5.65 6.34 7.3 6 9 C4.35 9 2.7 9 1 9 C2.32 8.01 3.64 7.02 5 6 C2.03 5.505 2.03 5.505 -1 5 C-0.67 3.35 -0.34 1.7 0 0 Z " fill="#303030" transform="translate(65,24)"/>
<path d="M0 0 C1.2065625 0.0309375 1.2065625 0.0309375 2.4375 0.0625 C2.7675 0.7225 3.0975 1.3825 3.4375 2.0625 C1.7875 1.7325 0.1375 1.4025 -1.5625 1.0625 C-0.17054085 3.8464183 1.59325779 4.04148997 4.4375 5.0625 C4.1075 6.3825 3.7775 7.7025 3.4375 9.0625 C1.7875 9.0625 0.1375 9.0625 -1.5625 9.0625 C-1.8925 8.4025 -2.2225 7.7425 -2.5625 7.0625 C-0.9125 7.3925 0.7375 7.7225 2.4375 8.0625 C2.4375 7.0725 2.4375 6.0825 2.4375 5.0625 C0.7875 5.0625 -0.8625 5.0625 -2.5625 5.0625 C-3.125 3.125 -3.125 3.125 -3.5625 1.0625 C-2.5625 0.0625 -2.5625 0.0625 0 0 Z " fill="#292929" transform="translate(88.5625,17.9375)"/>
<path d="M0 0 C0.66 0 1.32 0 2 0 C2.66 1.65 3.32 3.3 4 5 C4.99 3.68 5.98 2.36 7 1 C6.67 3.97 6.34 6.94 6 10 C5.01 10 4.02 10 3 10 C2.67 8.02 2.34 6.04 2 4 C1.34 4 0.68 4 0 4 C0 2.68 0 1.36 0 0 Z " fill="#222222" transform="translate(115,18)"/>
<path d="M0 0 C2.97 0 5.94 0 9 0 C8.67 0.99 8.34 1.98 8 3 C2.06 3.495 2.06 3.495 -4 4 C-3.67 3.34 -3.34 2.68 -3 2 C-2.01 2 -1.02 2 0 2 C0 1.34 0 0.68 0 0 Z " fill="#181818" transform="translate(85,6)"/>
<path d="M0 0 C0.66 0 1.32 0 2 0 C2 2.64 2 5.28 2 8 C1.34 8 0.68 8 0 8 C0 6.68 0 5.36 0 4 C-2.64 4 -5.28 4 -8 4 C-8 3.34 -8 2.68 -8 2 C-5.36 2 -2.72 2 0 2 C0 1.34 0 0.68 0 0 Z " fill="#4C4C4C" transform="translate(187,106)"/>
<path d="M0 0 C1.79275866 3.11910856 2.34290718 5.67682428 2.625 9.25 C2.69976562 10.14203125 2.77453125 11.0340625 2.8515625 11.953125 C2.92503906 12.96632813 2.92503906 12.96632813 3 14 C2.34 14 1.68 14 1 14 C-0.44209192 9.49346274 -1.34223148 5.79124078 -1 1 C-0.67 0.67 -0.34 0.34 0 0 Z " fill="#0B0B0B" transform="translate(59,108)"/>
<path d="M0 0 C-0.33 2.31 -0.66 4.62 -1 7 C-1.66 7 -2.32 7 -3 7 C-3.99 9.64 -4.98 12.28 -6 15 C-7.08626944 10.65492226 -6.83865592 9.76243837 -5.1875 5.8125 C-4.83042969 4.93207031 -4.47335938 4.05164063 -4.10546875 3.14453125 C-3.05243125 1.10171292 -2.47127177 0 0 0 Z " fill="#424242" transform="translate(41,75)"/>
<path d="M0 0 C0 3.33896168 -0.59422625 4.40480889 -2.3125 7.1875 C-2.95638672 8.26064453 -2.95638672 8.26064453 -3.61328125 9.35546875 C-4.07089844 9.89816406 -4.52851563 10.44085938 -5 11 C-5.99 11 -6.98 11 -8 11 C-6.60366572 6.55711819 -4.39598172 4.13475236 -1 1 C-0.67 0.67 -0.34 0.34 0 0 Z " fill="#121212" transform="translate(24,46)"/>
<path d="M0 0 C3.93673644 1.31224548 6.22719294 2.91910327 9 6 C7.35 6.33 5.7 6.66 4 7 C3.67 7.99 3.34 8.98 3 10 C2.34 10 1.68 10 1 10 C1 8.02 1 6.04 1 4 C1.99 4.33 2.98 4.66 4 5 C3.67 4.34 3.34 3.68 3 3 C2.01 2.67 1.02 2.34 0 2 C0 1.34 0 0.68 0 0 Z " fill="#262626" transform="translate(54,31)"/>
<path d="M0 0 C0.33 0 0.66 0 1 0 C1 2.97 1 5.94 1 9 C1.66 9 2.32 9 3 9 C3.33 8.34 3.66 7.68 4 7 C4 7.99 4 8.98 4 10 C2.35 10 0.7 10 -1 10 C-1 8.68 -1 7.36 -1 6 C-3.475 5.01 -3.475 5.01 -6 4 C-6 3.34 -6 2.68 -6 2 C-4.35 2 -2.7 2 -1 2 C-0.67 1.34 -0.34 0.68 0 0 Z " fill="#DDDDDD" transform="translate(93,17)"/>
<path d="M0 0 C0.66 0 1.32 0 2 0 C2.125 6.625 2.125 6.625 1 10 C0.01 10 -0.98 10 -2 10 C-2.17942163 6.05272412 -2.09350689 3.4019487 0 0 Z " fill="#303030" transform="translate(197,116)"/>
<path d="M0 0 C0.33 0 0.66 0 1 0 C1 4.95 1 9.9 1 15 C0.01 15.33 -0.98 15.66 -2 16 C-1.34 10.72 -0.68 5.44 0 0 Z " fill="#070707" transform="translate(169,102)"/>
<path d="M0 0 C0.33 0.66 0.66 1.32 1 2 C-3.455 2.495 -3.455 2.495 -8 3 C-8 2.34 -8 1.68 -8 1 C-11.3 1 -14.6 1 -18 1 C-18 0.67 -18 0.34 -18 0 C-15.3753399 -0.19430855 -12.75053235 -0.38073238 -10.125 -0.5625 C-9.00544922 -0.64661133 -9.00544922 -0.64661133 -7.86328125 -0.73242188 C-2.2265625 -1.11328125 -2.2265625 -1.11328125 0 0 Z " fill="#2C2C2C" transform="translate(142,61)"/>
<path d="M0 0 C-1 3 -1 3 -3.9375 4.6875 C-7 6 -7 6 -9 6 C-9.33 4.68 -9.66 3.36 -10 2 C-8.71211992 1.46987262 -7.41953322 0.9511671 -6.125 0.4375 C-5.40570313 0.14746094 -4.68640625 -0.14257812 -3.9453125 -0.44140625 C-2 -1 -2 -1 0 0 Z " fill="#313131" transform="translate(143,190)"/>
<path d="M0 0 C3.96 1.98 3.96 1.98 8 4 C5.6875 6.5 5.6875 6.5 3 9 C2.01 9 1.02 9 0 9 C0.185625 8.2575 0.37125 7.515 0.5625 6.75 C1.22052711 3.77159084 1.22052711 3.77159084 0 0 Z " fill="#CFCFCF" transform="translate(19,75)"/>
<path d="M0 0 C5.61 0.33 11.22 0.66 17 1 C17 1.33 17 1.66 17 2 C14.03 2 11.06 2 8 2 C8 2.66 8 3.32 8 4 C4.7 3.67 1.4 3.34 -2 3 C-1.34 2.67 -0.68 2.34 0 2 C0 1.34 0 0.68 0 0 Z " fill="#292929" transform="translate(63,60)"/>
<path d="M0 0 C-1.5830577 4.2742558 -4.50568404 6.26531794 -8 9 C-7.64598897 5.81390075 -7.16972964 4.20933322 -5.125 1.6875 C-3 0 -3 0 0 0 Z " fill="#131313" transform="translate(176,166)"/>
<path d="M0 0 C1.8125 0.125 1.8125 0.125 4 1 C5.95320589 4.20883825 7 6.2205439 7 10 C2.57320993 8.52440331 2.08567304 6.09942632 0 2 C0 1.34 0 0.68 0 0 Z " fill="#101010" transform="translate(40,132)"/>
<path d="M0 0 C2.75 2.375 2.75 2.375 5 5 C5 5.33 5 5.66 5 6 C2.1875 6.3125 2.1875 6.3125 -1 6 C-2.875 3.5 -2.875 3.5 -4 1 C-2.3125 0.1875 -2.3125 0.1875 0 0 Z " fill="#E7E7E7" transform="translate(86,109)"/>
<path d="M0 0 C1.65 0 3.3 0 5 0 C5 2.31 5 4.62 5 7 C3.68 6.34 2.36 5.68 1 5 C0.67 5.66 0.34 6.32 0 7 C0 4.69 0 2.38 0 0 Z " fill="#5F5F5F" transform="translate(190,9)"/>
<path d="M0 0 C2.31 0.66 4.62 1.32 7 2 C6.01 2.33 5.02 2.66 4 3 C3.67 5.64 3.34 8.28 3 11 C2.01 11 1.02 11 0 11 C0.66 8.03 1.32 5.06 2 2 C1.34 2 0.68 2 0 2 C0 1.34 0 0.68 0 0 Z " fill="#323232" transform="translate(77,176)"/>
<path d="M0 0 C0.515625 0.37125 1.03125 0.7425 1.5625 1.125 C-1.19973278 3.88723278 -3.64456617 3.70356291 -7.4375 4.125 C-7.4375 3.465 -7.4375 2.805 -7.4375 2.125 C-8.0975 1.795 -8.7575 1.465 -9.4375 1.125 C-3.0375 -1.09038462 -3.0375 -1.09038462 0 0 Z " fill="#333333" transform="translate(94.4375,58.875)"/>
<path d="M0 0 C0.99 0.33 1.98 0.66 3 1 C2.34 1 1.68 1 1 1 C0.773125 1.598125 0.54625 2.19625 0.3125 2.8125 C-1.3611297 5.60188284 -3.08817726 6.6168842 -6 8 C-6.66 7.67 -7.32 7.34 -8 7 C-5.42215154 4.35247996 -3.08351902 2.05567935 0 0 Z " fill="#0E0E0E" transform="translate(53,18)"/>
<path d="M0 0 C0.99 0.99 1.98 1.98 3 3 C2.01 5.31 1.02 7.62 0 10 C-0.66 10 -1.32 10 -2 10 C-2 7.03 -2 4.06 -2 1 C-1.34 0.67 -0.68 0.34 0 0 Z " fill="#E1E1E1" transform="translate(104,16)"/>
<path d="M0 0 C2.375 0.3125 2.375 0.3125 5 1 C5.66 1.99 6.32 2.98 7 4 C9.05003955 5.19232613 9.05003955 5.19232613 11 6 C3.375 5.125 3.375 5.125 0 4 C0 2.68 0 1.36 0 0 Z " fill="#454545" transform="translate(71,193)"/>
<path d="M0 0 C2.64 0.33 5.28 0.66 8 1 C8 2.32 8 3.64 8 5 C4.5625 4.1875 4.5625 4.1875 1 3 C0.67 2.01 0.34 1.02 0 0 Z " fill="#232323" transform="translate(63,191)"/>
<path d="M0 0 C2.34191563 2.1290142 3.83554954 4.04408729 5 7 C5 8.32 5 9.64 5 11 C4.34 11 3.68 11 3 11 C0.84694043 7.14243493 -0.39253254 4.44870215 0 0 Z " fill="#0C0C0C" transform="translate(11,135)"/>
<path d="M0 0 C0 2.31 0 4.62 0 7 C-2.66666667 7.66666667 -5.33333333 8.33333333 -8 9 C-7.67 8.01 -7.34 7.02 -7 6 C-4 5 -4 5 -1 6 C-1.75150023 2.72226496 -1.75150023 2.72226496 -5 1 C-3 0 -3 0 0 0 Z " fill="#272727" transform="translate(186,78)"/>
<path d="M0 0 C1.2077558 3.62326739 0.54311128 4.64146369 -1 8 C-1.66 8 -2.32 8 -3 8 C-3.66 8.66 -4.32 9.32 -5 10 C-4.51421457 6.87709365 -4.0013988 4.00419641 -3 1 C-2.01 0.67 -1.02 0.34 0 0 Z " fill="#343434" transform="translate(12,70)"/>
<path d="M0 0 C0.33 0.66 0.66 1.32 1 2 C-3.25 6.25 -3.25 6.25 -7 7 C-7.66 6.01 -8.32 5.02 -9 4 C-6.03 2.68 -3.06 1.36 0 0 Z " fill="#242424" transform="translate(135,160)"/>
<path d="M0 0 C0.33 0.99 0.66 1.98 1 3 C-0.75 6.1875 -0.75 6.1875 -3 9 C-3.99 9 -4.98 9 -6 9 C-4.68775452 5.06326356 -3.08089673 2.77280706 0 0 Z " fill="#111111" transform="translate(163,132)"/>
<path d="M0 0 C0 3.96 0 7.92 0 12 C-0.99 11.34 -1.98 10.68 -3 10 C-3.29296875 7.8359375 -3.29296875 7.8359375 -3.1875 5.375 C-3.16042969 4.55773437 -3.13335937 3.74046875 -3.10546875 2.8984375 C-3.05326172 1.95871094 -3.05326172 1.95871094 -3 1 C-1 0 -1 0 0 0 Z " fill="#202020" transform="translate(171,96)"/>
<path d="M0 0 C0.66 0 1.32 0 2 0 C2 1.32 2 2.64 2 4 C3.98 4.66 5.96 5.32 8 6 C8 6.99 8 7.98 8 9 C4.9168649 7.80100302 1.93720508 6.52299523 -1 5 C-0.67 3.35 -0.34 1.7 0 0 Z " fill="#3E3E3E" transform="translate(26,60)"/>
<path d="M0 0 C0.99 0.33 1.98 0.66 3 1 C4.1875 3.5625 4.1875 3.5625 5 6 C4.2575 6.12375 3.515 6.2475 2.75 6.375 C0.19858515 6.95486701 -1.7267573 7.73708739 -4 9 C-3 6 -3 6 0 4 C0 2.68 0 1.36 0 0 Z " fill="#2C2C2C" transform="translate(166,46)"/>
<path d="M0 0 C0.66 0 1.32 0 2 0 C2.22036864 3.85645121 1.60355101 6.49223216 0 10 C-1.65 10 -3.3 10 -5 10 C-4.01 9.34 -3.02 8.68 -2 8 C-2.33 5.69 -2.66 3.38 -3 1 C-2 1 -1 1 0 1 C0 0.67 0 0.34 0 0 Z " fill="#D1D1D1" transform="translate(142,26)"/>
<path d="M0 0 C1.20628008 2.33214148 2.1654738 4.49642139 3 7 C2.01 8.485 2.01 8.485 1 10 C1 8.68 1 7.36 1 6 C-0.98 6 -2.96 6 -5 6 C-5 5.34 -5 4.68 -5 4 C-3.68 4 -2.36 4 -1 4 C-0.67 2.68 -0.34 1.36 0 0 Z " fill="#D2D2D2" transform="translate(71,22)"/>
<path d="M0 0 C3.40312738 1.05875074 6.01353231 2.00902154 9 4 C9 4.66 9 5.32 9 6 C5.65626525 5.44271087 2.96687001 4.64826111 0 3 C0 2.01 0 1.02 0 0 Z " fill="#0B0B0B" transform="translate(143,15)"/>
<path d="M0 0 C3.82946843 1.45255699 5.12050295 3.42895561 7 7 C5.68 7 4.36 7 3 7 C0.58152803 4.49515403 0 3.53986194 0 0 Z " fill="#151515" transform="translate(175,40)"/>
<path d="M0 0 C0.33 0.66 0.66 1.32 1 2 C0.01 3.485 0.01 3.485 -1 5 C-1 4.01 -1 3.02 -1 2 C-2.65 2 -4.3 2 -6 2 C-6 4.31 -6 6.62 -6 9 C-6.33 9 -6.66 9 -7 9 C-7.33 6.36 -7.66 3.72 -8 1 C-5.29120665 -0.35439668 -2.99066732 -0.06501451 0 0 Z " fill="#C9C9C9" transform="translate(196,7)"/>
<path d="M0 0 C7.75 -0.125 7.75 -0.125 10 1 C10 1.66 10 2.32 10 3 C3.375 3.125 3.375 3.125 0 2 C0 1.34 0 0.68 0 0 Z " fill="#111111" transform="translate(119,8)"/>
<path d="M0 0 C3.82097239 0.53069061 6.06171403 1.49701566 9 4 C8.34 4.66 7.68 5.32 7 6 C3.535 4.02 3.535 4.02 0 2 C0 1.34 0 0.68 0 0 Z " fill="#121212" transform="translate(55,187)"/>
<path d="M0 0 C0 3.77910478 -0.99703962 4.46106101 -3.5 7.1875 C-4.1496875 7.90292969 -4.799375 8.61835938 -5.46875 9.35546875 C-5.9740625 9.89816406 -6.479375 10.44085938 -7 11 C-8.32 10.67 -9.64 10.34 -11 10 C-9.93458984 9.04287109 -9.93458984 9.04287109 -8.84765625 8.06640625 C-7.46900391 6.82697266 -7.46900391 6.82697266 -6.0625 5.5625 C-4.68771484 4.32693359 -4.68771484 4.32693359 -3.28515625 3.06640625 C-1.61665644 1.56046061 -1.61665644 1.56046061 0 0 Z " fill="#D2D2D2" transform="translate(153,149)"/>
<path d="M0 0 C1.99097846 2.98646769 2.94124926 5.59687262 4 9 C2.68 9 1.36 9 0 9 C-0.66 6.69 -1.32 4.38 -2 2 C-1.34 1.34 -0.68 0.68 0 0 Z " fill="#2C2C2C" transform="translate(39,124)"/>
<path d="M0 0 C0.99 0.33 1.98 0.66 3 1 C2.25 3.9375 2.25 3.9375 1 7 C-1.125 7.875 -1.125 7.875 -3 8 C-1.125 2.25 -1.125 2.25 0 0 Z " fill="#282828" transform="translate(134,90)"/>
<path d="M0 0 C2.52259061 1.97420135 2.9929808 2.96745642 3.6875 6.1875 C3.790625 7.115625 3.89375 8.04375 4 9 C3.34 8.34 2.68 7.68 2 7 C1.01 7.495 1.01 7.495 0 8 C-0.38063221 5.6739143 -0.71269945 3.33944736 -1 1 C-0.67 0.67 -0.34 0.34 0 0 Z " fill="#2F2F2F" transform="translate(165,77)"/>
<path d="M0 0 C1.5625 1.8125 1.5625 1.8125 3 4 C2.67 4.99 2.34 5.98 2 7 C1.34 6.67 0.68 6.34 0 6 C-2.3400417 6.28241883 -4.67504723 6.61250787 -7 7 C-7 6.34 -7 5.68 -7 5 C-3.535 4.505 -3.535 4.505 0 4 C0 2.68 0 1.36 0 0 Z " fill="#2C2C2C" transform="translate(181,69)"/>
<path d="M0 0 C1.32 0.33 2.64 0.66 4 1 C4 2.65 4 4.3 4 6 C2.68 6 1.36 6 0 6 C0 4.02 0 2.04 0 0 Z " fill="#E6E6E6" transform="translate(121,179)"/>
<path d="M0 0 C0.33 0 0.66 0 1 0 C1.309375 1.093125 1.61875 2.18625 1.9375 3.3125 C2.58337897 5.55407994 3.2623117 7.7869351 4 10 C3.01 10 2.02 10 1 10 C1 9.34 1 8.68 1 8 C0.34 8 -0.32 8 -1 8 C-2.2077558 4.37673261 -1.54311128 3.35853631 0 0 Z " fill="#D7D7D7" transform="translate(68,172)"/>
<path d="M0 0 C0.66 0.33 1.32 0.66 2 1 C2 1.66 2 2.32 2 3 C-0.8125 5.1875 -0.8125 5.1875 -4 7 C-4.99 6.67 -5.98 6.34 -7 6 C-6.01 5.67 -5.02 5.34 -4 5 C-3.30062468 3.68352881 -2.63270867 2.34977849 -2 1 C-1.34 0.67 -0.68 0.34 0 0 Z " fill="#111111" transform="translate(140,157)"/>
<path d="M0 0 C1.89213369 2.38573379 3.02391783 4.07175348 4 7 C3.34 7 2.68 7 2 7 C1.67 7.66 1.34 8.32 1 9 C-2 4.25 -2 4.25 -2 2 C-1.34 2 -0.68 2 0 2 C0 1.34 0 0.68 0 0 Z " fill="#2B2B2B" transform="translate(16,144)"/>
<path d="M0 0 C1.60080151 4.00200378 0.29279692 7.04556236 -1 11 C-1.66 11 -2.32 11 -3 11 C-2.25 3.375 -2.25 3.375 0 0 Z " fill="#040404" transform="translate(38,81)"/>
<path d="M0 0 C0.33 0.99 0.66 1.98 1 3 C-2.96 4.98 -2.96 4.98 -7 7 C-6.34 5.02 -5.68 3.04 -5 1 C-3.35 0.67 -1.7 0.34 0 0 Z " fill="#373737" transform="translate(176,58)"/>
<path d="M0 0 C1.32 0.33 2.64 0.66 4 1 C4.66 3.31 5.32 5.62 6 8 C4.125 7.375 4.125 7.375 2 6 C0.75 2.875 0.75 2.875 0 0 Z " fill="#121212" transform="translate(184,54)"/>
<path d="M0 0 C0.66 0 1.32 0 2 0 C2 1.65 2 3.3 2 5 C-0.49064888 5.68707555 -2.37886292 6 -5 6 C-3.38405168 3.95880212 -1.7143618 1.95927063 0 0 Z " fill="#232323" transform="translate(154,35)"/>
<path d="M0 0 C0 1.65 0 3.3 0 5 C-0.598125 5.103125 -1.19625 5.20625 -1.8125 5.3125 C-4.28243264 6.08876455 -5.32251235 7.07088921 -7 9 C-7.66 8.67 -8.32 8.34 -9 8 C-7.6905332 6.66368764 -6.37734515 5.33102075 -5.0625 4 C-3.96615234 2.88625 -3.96615234 2.88625 -2.84765625 1.75 C-1 0 -1 0 0 0 Z " fill="#373737" transform="translate(37,30)"/>
<path d="M0 0 C0.99 0.33 1.98 0.66 3 1 C2.34 1 1.68 1 1 1 C1 3.97 1 6.94 1 10 C-0.65 10 -2.3 10 -4 10 C-3.525625 9.278125 -3.05125 8.55625 -2.5625 7.8125 C-1.05847097 5.10524774 -0.43400818 3.03805725 0 0 Z " fill="#646464" transform="translate(114,17)"/>
<path d="M0 0 C0.99 0 1.98 0 3 0 C3.33 1.65 3.66 3.3 4 5 C3.34 5 2.68 5 2 5 C1.67 5.99 1.34 6.98 1 8 C-0.35439668 5.29120665 -0.06501451 2.99066732 0 0 Z " fill="#383838" transform="translate(6,121)"/>
<path d="M0 0 C-0.33 1.65 -0.66 3.3 -1 5 C-1.99 5.33 -2.98 5.66 -4 6 C-4.33 6.66 -4.66 7.32 -5 8 C-5.33 7.34 -5.66 6.68 -6 6 C-4.90218919 2.70656758 -3.7827394 0 0 0 Z " fill="#202020" transform="translate(93,99)"/>
<path d="M0 0 C1.98 0.495 1.98 0.495 4 1 C4 1.66 4 2.32 4 3 C3.34 3 2.68 3 2 3 C1.67 4.65 1.34 6.3 1 8 C1.66 8.33 2.32 8.66 3 9 C2.34 9 1.68 9 1 9 C0.67 9.66 0.34 10.32 0 11 C-1.37432457 7.18243176 -0.67975039 3.92744671 0 0 Z " fill="#B8B8B8" transform="translate(54,33)"/>
<path d="M0 0 C2.125 0.9375 2.125 0.9375 4 2 C4 2.99 4 3.98 4 5 C3.01 5 2.02 5 1 5 C-0.6875 3 -0.6875 3 -2 1 C-1.34 0.67 -0.68 0.34 0 0 Z " fill="#272727" transform="translate(37,173)"/>
<path d="M0 0 C3.92896395 0 7.19893228 1.00299863 11 2 C10.67 2.66 10.34 3.32 10 4 C2.25 4.125 2.25 4.125 0 3 C0 2.01 0 1.02 0 0 Z " fill="#BEBEBE" transform="translate(177,85)"/>
<path d="M0 0 C1.98 0 3.96 0 6 0 C6.33 1.65 6.66 3.3 7 5 C6.01 4.67 5.02 4.34 4 4 C4 3.34 4 2.68 4 2 C2.35 2 0.7 2 -1 2 C-0.67 1.34 -0.34 0.68 0 0 Z " fill="#060606" transform="translate(113,86)"/>
<path d="M0 0 C0.66 0.99 1.32 1.98 2 3 C-0.33333333 5.33333333 -2.66666667 7.66666667 -5 10 C-5 6.60406522 -4.47834052 5.93380119 -2.5 3.3125 C-2.0359375 2.68988281 -1.571875 2.06726562 -1.09375 1.42578125 C-0.7328125 0.95527344 -0.371875 0.48476563 0 0 Z " fill="#D6D6D6" transform="translate(52,59)"/>
<path d="M0 0 C0.66 0.33 1.32 0.66 2 1 C1.01 1.33 0.02 1.66 -1 2 C-1 2.99 -1 3.98 -1 5 C-2.98 5.33 -4.96 5.66 -7 6 C-7 5.34 -7 4.68 -7 4 C-1.7265625 0.77734375 -1.7265625 0.77734375 0 0 Z " fill="#2A2A2A" transform="translate(172,54)"/>
<path d="M0 0 C0.99 0 1.98 0 3 0 C3 0.66 3 1.32 3 2 C3.99 1.67 4.98 1.34 6 1 C6.66 1.33 7.32 1.66 8 2 C7.67 3.32 7.34 4.64 7 6 C6.67 5.01 6.34 4.02 6 3 C4.68 3.33 3.36 3.66 2 4 C1.34 2.68 0.68 1.36 0 0 Z " fill="#D6D6D6" transform="translate(71,176)"/>
<path d="M0 0 C2.97 0.33 5.94 0.66 9 1 C9 1.99 9 2.98 9 4 C6.03 3.01 3.06 2.02 0 1 C0 0.67 0 0.34 0 0 Z " fill="#080808" transform="translate(81,167)"/>
<path d="M0 0 C0.33 0.99 0.66 1.98 1 3 C-1.31 5.31 -3.62 7.62 -6 10 C-6.66 9.67 -7.32 9.34 -8 9 C-5.36 6.03 -2.72 3.06 0 0 Z " fill="#D1D1D1" transform="translate(133,140)"/>
<path d="M0 0 C0.99 0.33 1.98 0.66 3 1 C2.1875 3.4375 2.1875 3.4375 1 6 C0.01 6.33 -0.98 6.66 -2 7 C-1.125 2.25 -1.125 2.25 0 0 Z " fill="#141414" transform="translate(140,122)"/>
<path d="M0 0 C2.5654594 2.5654594 2.54046087 4.47686668 3 8 C2.01 8 1.02 8 0 8 C-0.98120464 4.94736336 -0.98120464 3.05263664 0 0 Z " fill="#353535" transform="translate(62,118)"/>
<path d="M0 0 C0.99 0.33 1.98 0.66 3 1 C2.67 2.98 2.34 4.96 2 7 C1.01 6.67 0.02 6.34 -1 6 C-0.67 4.02 -0.34 2.04 0 0 Z " fill="#F1F1F1" transform="translate(126,99)"/>
<path d="M0 0 C1.98 0 3.96 0 6 0 C5.690625 0.598125 5.38125 1.19625 5.0625 1.8125 C3.89790296 4.08956772 3.89790296 4.08956772 3 7 C2.34 7 1.68 7 1 7 C1.20625 6.21625 1.4125 5.4325 1.625 4.625 C1.74875 3.75875 1.8725 2.8925 2 2 C1.34 1.34 0.68 0.68 0 0 Z " fill="#DDDDDD" transform="translate(180,95)"/>
<path d="M0 0 C1.65 0 3.3 0 5 0 C5 1.32 5 2.64 5 4 C3.35 4 1.7 4 0 4 C0 2.68 0 1.36 0 0 Z " fill="#E9E9E9" transform="translate(79,94)"/>
<path d="M0 0 C0.33 0 0.66 0 1 0 C0.67 2.97 0.34 5.94 0 9 C-0.99 9 -1.98 9 -3 9 C-2.69181644 7.68647977 -2.37832335 6.37420428 -2.0625 5.0625 C-1.88847656 4.33160156 -1.71445313 3.60070312 -1.53515625 2.84765625 C-1 1 -1 1 0 0 Z " fill="#0A0A0A" transform="translate(9,77)"/>
<path d="M0 0 C0.99 0.33 1.98 0.66 3 1 C4.1875 3.5625 4.1875 3.5625 5 6 C4.01 6.66 3.02 7.32 2 8 C1.34 5.36 0.68 2.72 0 0 Z " fill="#141414" transform="translate(161,71)"/>
<path d="M0 0 C1.67542976 0.28604898 3.34385343 0.61781233 5 1 C2.77810176 3.22189824 0.91517292 3.92598892 -2 5 C-1.125 1.125 -1.125 1.125 0 0 Z " fill="#C9C9C9" transform="translate(41,49)"/>
<path d="M0 0 C1.98 1.65 3.96 3.3 6 5 C5.01 5.33 4.02 5.66 3 6 C-0.1875 4.0625 -0.1875 4.0625 -3 2 C-2.01 1.34 -1.02 0.68 0 0 Z " fill="#E0E0E0" transform="translate(141,43)"/>
<path d="M0 0 C2.4375 0.8125 2.4375 0.8125 5 2 C5.33 2.99 5.66 3.98 6 5 C3.61435923 4.42415568 1.33317216 3.77772405 -1 3 C-0.67 2.01 -0.34 1.02 0 0 Z " fill="#181818" transform="translate(129,40)"/>
<path d="M0 0 C5.75 0.875 5.75 0.875 8 2 C7.67 2.99 7.34 3.98 7 5 C4.03 4.505 4.03 4.505 1 4 C1.33 3.34 1.66 2.68 2 2 C1.34 1.34 0.68 0.68 0 0 Z " fill="#2F2F2F" transform="translate(121,37)"/>
<path d="M0 0 C1.32 0.99 2.64 1.98 4 3 C-1.75 6 -1.75 6 -4 6 C-2.84826645 3.53199953 -1.95216435 1.95216435 0 0 Z " fill="#E4E4E4" transform="translate(146,28)"/>
<path d="M0 0 C0.66 0 1.32 0 2 0 C0.68775452 3.93673644 -0.91910327 6.22719294 -4 9 C-3.35494404 5.51669784 -2.01782732 2.90567134 0 0 Z " fill="#2B2B2B" transform="translate(58,167)"/>
<path d="M0 0 C1.98 0.99 3.96 1.98 6 3 C5.34 3.66 4.68 4.32 4 5 C0.875 4.625 0.875 4.625 -2 4 C-1.34 2.68 -0.68 1.36 0 0 Z " fill="#D3D3D3" transform="translate(19,94)"/>
<path d="M0 0 C0.99 0.33 1.98 0.66 3 1 C3 1.99 3 2.98 3 4 C1.02 4.66 -0.96 5.32 -3 6 C-2.01 4.02 -1.02 2.04 0 0 Z " fill="#555555" transform="translate(125,23)"/>
<path d="M0 0 C0.33 0.99 0.66 1.98 1 3 C0.67 3.66 0.34 4.32 0 5 C0.99 5.33 1.98 5.66 3 6 C2.01 6.495 2.01 6.495 1 7 C0.67 7.66 0.34 8.32 0 9 C-1.125 6.1875 -1.125 6.1875 -2 3 C-1.34 2.01 -0.68 1.02 0 0 Z " fill="#E7E7E7" transform="translate(186,99)"/>
<path d="M0 0 C0.556875 0.144375 1.11375 0.28875 1.6875 0.4375 C4.11384195 1.02769128 6.54906345 1.523429 9 2 C8.67 2.99 8.34 3.98 8 5 C8 4.34 8 3.68 8 3 C5.36 3 2.72 3 0 3 C0 2.01 0 1.02 0 0 Z " fill="#D7D7D7" transform="translate(180,90)"/>
<path d="M0 0 C1.65 0.33 3.3 0.66 5 1 C4.67 1.99 4.34 2.98 4 4 C4.66 4.33 5.32 4.66 6 5 C1.25 4.25 1.25 4.25 -1 2 C-0.67 1.34 -0.34 0.68 0 0 Z " fill="#333333" transform="translate(107,57)"/>
<path d="M0 0 C1 2 1 2 1 5 C2.32 4.67 3.64 4.34 5 4 C3.68 5.32 2.36 6.64 1 8 C0.34 7.67 -0.32 7.34 -1 7 C-1.75 4.5625 -1.75 4.5625 -2 2 C-1.34 1.34 -0.68 0.68 0 0 Z " fill="#C0C0C0" transform="translate(153,39)"/>
<path d="M0 0 C0.66 0 1.32 0 2 0 C1.1875 1.9375 1.1875 1.9375 0 4 C-0.99 4.33 -1.98 4.66 -3 5 C-3.99 4.34 -4.98 3.68 -6 3 C-6 2.34 -6 1.68 -6 1 C-3.525 1.495 -3.525 1.495 -1 2 C-0.67 1.34 -0.34 0.68 0 0 Z " fill="#262626" transform="translate(48,45)"/>
<path d="M0 0 C0.99 0.33 1.98 0.66 3 1 C2.25 2.9375 2.25 2.9375 1 5 C-1.125 5.75 -1.125 5.75 -3 6 C-1.125 1.125 -1.125 1.125 0 0 Z " fill="#222222" transform="translate(25,42)"/>
<path d="M0 0 C0.33 0 0.66 0 1 0 C1.33 2.64 1.66 5.28 2 8 C1.01 8.66 0.02 9.32 -1 10 C-1.66 9.67 -2.32 9.34 -3 9 C-2.67 8.34 -2.34 7.68 -2 7 C-1.31744011 4.67126625 -0.64949225 2.33817209 0 0 Z " fill="#A6A6A6" transform="translate(149,32)"/>
<path d="M0 0 C0.66 0 1.32 0 2 0 C2.33 3.3 2.66 6.6 3 10 C0.70366176 6.55549263 0.45983515 4.06187717 0 0 Z " fill="#202020" transform="translate(76,20)"/>
<path d="M0 0 C2.25 0.25 2.25 0.25 4 1 C3.67 1.66 3.34 2.32 3 3 C0.67843403 3.40729228 -1.6568787 3.74438677 -4 4 C-2.25 1.9375 -2.25 1.9375 0 0 Z " fill="#0C0C0C" transform="translate(68,11)"/>
<path d="M0 0 C2.64 0.33 5.28 0.66 8 1 C7.01 2.485 7.01 2.485 6 4 C1.125 2.25 1.125 2.25 0 0 Z " fill="#0B0B0B" transform="translate(76,195)"/>
<path d="M0 0 C1.32 0.33 2.64 0.66 4 1 C4.33 3.64 4.66 6.28 5 9 C4.34 9 3.68 9 3 9 C2.01 6.03 1.02 3.06 0 0 Z " fill="#121212" transform="translate(127,176)"/>
<path d="M0 0 C1.65 1.65 3.3 3.3 5 5 C4.01 5.33 3.02 5.66 2 6 C1.01 5.01 0.02 4.02 -1 3 C-0.67 2.01 -0.34 1.02 0 0 Z " fill="#101010" transform="translate(76,143)"/>
<path d="M0 0 C-0.66 1.32 -1.32 2.64 -2 4 C-2.66 4 -3.32 4 -4 4 C-4.99 5.485 -4.99 5.485 -6 7 C-6.66 6.67 -7.32 6.34 -8 6 C-3.38461538 0 -3.38461538 0 0 0 Z " fill="#2C2C2C" transform="translate(159,141)"/>
<path d="M0 0 C0.99 0 1.98 0 3 0 C3.66 1.65 4.32 3.3 5 5 C4.01 5.33 3.02 5.66 2 6 C1.34 4.02 0.68 2.04 0 0 Z " fill="#1D1D1D" transform="translate(116,104)"/>
<path d="M0 0 C2 3 2 3 2 5 C0.625 6.625 0.625 6.625 -1 8 C-1.66 8 -2.32 8 -3 8 C-1.125 2.25 -1.125 2.25 0 0 Z " fill="#CBCBCB" transform="translate(134,97)"/>
<path d="M0 0 C1.65 0.99 3.3 1.98 5 3 C4.01 3.99 3.02 4.98 2 6 C1.34 5.34 0.68 4.68 0 4 C0 2.68 0 1.36 0 0 Z " fill="#242424" transform="translate(143,48)"/>
</svg>
